<svg id="svg" version="1.1" xmlns="http://www.w3.org/2000/svg" xmlns:xlink="http://www.w3.org/1999/xlink" width="400" height="400" viewBox="0, 0, 400,400"><g id="svgg"><path id="path0" d="M336.200 51.174 C 330.192 51.416,328.677 51.927,324.483 55.118 L 323.166 56.121 324.283 57.310 C 324.897 57.964,326.644 59.102,328.163 59.838 L 330.927 61.176 337.775 60.928 C 346.991 60.595,352.074 61.741,355.539 64.935 L 356.477 65.800 357.580 64.486 C 359.611 62.064,360.654 56.586,359.356 55.151 C 357.510 53.107,356.486 52.742,349.886 51.773 C 346.319 51.249,343.040 50.849,342.600 50.884 C 342.160 50.919,339.280 51.050,336.200 51.174 M28.000 52.978 C 23.553 55.646,23.190 56.027,23.467 57.733 C 23.965 60.806,26.395 61.344,36.908 60.706 C 48.604 59.996,54.293 61.803,55.781 66.700 C 56.699 69.724,58.800 63.952,58.800 58.405 C 58.800 53.627,52.714 51.504,38.400 51.289 L 31.000 51.177 28.000 52.978 M220.640 51.482 C 216.688 51.752,212.500 55.195,212.926 57.822 C 213.596 61.952,215.482 62.490,224.200 61.043 C 230.821 59.943,235.564 59.758,241.800 60.358 C 247.215 60.878,248.667 62.027,249.589 66.518 C 249.850 67.793,251.046 71.478,252.246 74.706 C 253.446 77.934,254.797 82.020,255.248 83.787 C 256.282 87.840,256.180 87.797,257.549 84.763 C 261.112 76.867,262.776 69.753,261.776 66.695 C 259.350 59.281,256.434 56.543,249.110 54.804 C 237.035 51.936,228.526 50.943,220.640 51.482 M149.600 54.358 C 146.190 55.398,142.418 56.756,141.217 57.374 C 140.016 57.992,137.326 58.847,135.240 59.273 C 130.586 60.223,131.062 59.900,129.362 63.276 C 124.850 72.234,124.355 82.471,127.982 91.800 C 128.581 93.340,129.485 96.085,129.991 97.900 C 131.155 102.074,131.365 102.034,132.117 97.500 C 132.455 95.465,133.451 90.920,134.331 87.400 C 135.211 83.880,136.219 79.745,136.572 78.210 C 137.472 74.292,138.624 72.734,141.762 71.189 C 145.080 69.556,145.444 69.105,145.793 66.200 C 146.349 61.591,147.461 60.676,153.115 60.183 C 156.384 59.898,159.200 58.087,159.200 56.269 C 159.200 55.778,156.439 52.389,156.073 52.432 C 155.923 52.450,153.010 53.317,149.600 54.358 M16.610 65.092 C 14.280 69.072,14.466 71.230,17.392 74.156 C 18.770 75.534,19.312 75.135,21.320 71.267 C 24.915 64.341,20.465 58.506,16.610 65.092 M204.384 65.900 L 202.723 68.200 202.991 72.000 C 203.384 77.579,205.568 87.765,206.229 87.104 C 206.325 87.009,206.759 85.265,207.194 83.229 C 207.629 81.193,208.720 76.990,209.618 73.889 C 211.525 67.306,211.342 65.528,208.620 64.236 C 206.571 63.264,206.174 63.420,204.384 65.900 M67.267 73.528 C 65.104 75.844,64.770 79.148,65.582 90.200 C 66.117 97.493,66.108 105.699,65.557 113.261 C 64.933 121.810,65.910 128.708,68.014 130.612 C 68.931 131.442,68.964 131.375,70.883 124.800 C 72.062 120.762,72.104 120.361,71.960 114.400 C 71.773 106.648,71.772 102.753,71.956 90.200 L 72.102 80.200 70.852 76.978 C 68.973 72.134,68.760 71.930,67.267 73.528 M368.073 77.478 C 367.829 78.095,367.271 80.079,366.832 81.887 C 364.750 90.463,361.235 92.389,350.264 90.966 C 335.212 89.013,323.463 92.549,330.243 96.991 C 331.477 97.800,348.314 97.686,353.692 96.833 C 362.429 95.446,366.307 101.848,366.455 117.901 C 366.594 133.064,362.394 139.999,351.281 142.957 L 347.800 143.884 351.200 144.324 C 353.070 144.566,355.770 144.867,357.200 144.993 C 358.630 145.119,361.778 145.504,364.196 145.849 L 368.591 146.476 369.731 145.138 L 370.870 143.800 370.672 113.200 C 370.504 87.269,370.377 82.177,369.842 79.825 C 369.089 76.517,368.671 75.962,368.073 77.478 M0.000 101.800 L 0.000 113.200 3.148 113.200 L 6.296 113.200 6.747 111.500 C 6.996 110.565,7.370 108.990,7.579 108.000 C 8.114 105.471,7.668 94.641,6.932 92.300 L 6.336 90.400 3.168 90.400 L 0.000 90.400 0.000 101.800 M317.454 103.193 C 315.257 105.625,315.216 105.794,315.666 110.620 C 316.256 116.955,316.263 120.748,315.693 126.400 C 315.213 131.157,315.238 131.702,316.198 137.600 C 317.458 145.347,317.467 145.358,322.850 145.744 C 324.912 145.892,327.723 146.277,329.096 146.601 L 331.591 147.189 335.409 145.807 C 341.472 143.612,341.614 143.748,331.800 142.377 C 323.916 141.277,322.889 139.777,321.557 127.418 C 320.610 118.633,320.674 117.526,322.510 110.897 L 323.867 105.994 323.083 104.704 C 321.251 101.691,319.287 101.164,317.454 103.193 M205.409 107.730 C 202.830 111.667,201.735 117.882,202.979 121.537 C 204.578 126.238,205.952 128.956,207.110 129.705 C 207.710 130.092,208.740 130.778,209.400 131.228 C 210.060 131.678,211.950 132.929,213.600 134.007 C 215.250 135.086,217.140 136.405,217.800 136.939 C 220.362 139.012,227.011 134.410,225.845 131.372 C 225.469 130.394,219.477 128.257,216.289 127.964 C 211.459 127.519,210.400 126.157,210.400 120.383 C 210.400 118.469,207.244 107.884,206.431 107.071 C 206.222 106.862,205.799 107.135,205.409 107.730 M254.494 110.821 C 252.917 114.865,251.974 118.092,251.406 121.381 C 250.742 125.232,248.928 127.030,244.600 128.129 C 243.280 128.464,240.940 129.305,239.400 129.998 L 236.600 131.258 238.068 132.605 C 239.798 134.193,241.296 134.650,246.556 135.195 C 252.202 135.781,255.064 136.713,255.922 138.246 C 256.194 138.733,256.511 138.054,257.177 135.549 C 257.667 133.707,258.667 130.580,259.398 128.600 C 261.678 122.426,262.259 118.914,261.425 116.341 C 260.414 113.221,258.612 109.601,257.282 108.021 L 256.123 106.642 254.494 110.821 M17.445 127.236 C 16.858 127.698,16.031 128.754,15.608 129.584 L 14.839 131.092 16.436 137.442 C 18.323 144.947,17.647 144.076,23.036 145.950 C 25.436 146.784,28.201 147.879,29.179 148.382 C 31.165 149.403,34.665 149.343,40.737 148.185 C 42.906 147.771,45.345 147.690,50.060 147.876 L 56.446 148.127 58.572 146.027 C 61.211 143.421,61.070 141.110,58.076 137.900 C 56.763 136.492,56.868 136.477,52.728 138.615 C 50.795 139.614,48.008 140.885,46.535 141.439 L 43.857 142.447 38.828 141.631 C 36.063 141.182,32.270 140.620,30.400 140.383 C 24.375 139.620,22.464 137.982,21.781 133.000 C 21.515 131.060,19.956 127.594,18.989 126.791 C 18.662 126.519,18.180 126.658,17.445 127.236 M255.678 147.389 C 254.838 149.231,253.634 154.571,253.206 158.344 C 252.710 162.723,251.603 166.136,250.204 167.595 C 248.640 169.228,249.382 169.893,253.782 170.800 L 256.163 171.291 257.282 170.039 C 257.904 169.342,258.409 168.302,258.421 167.694 C 258.433 167.092,258.680 164.268,258.969 161.419 C 259.548 155.727,259.298 153.489,257.609 149.200 C 256.505 146.396,256.242 146.150,255.678 147.389 M205.800 165.912 C 205.580 166.078,204.876 166.790,204.236 167.495 L 203.072 168.778 204.540 170.989 C 205.347 172.205,206.284 173.200,206.620 173.200 C 208.514 173.200,211.600 170.498,211.600 168.839 C 211.600 168.506,206.870 165.587,206.362 165.606 C 206.273 165.609,206.020 165.747,205.800 165.912 M242.200 175.639 C 241.540 175.843,235.938 176.168,229.751 176.362 C 217.288 176.753,216.839 176.853,215.745 179.469 C 214.518 182.407,216.516 183.430,225.799 184.614 C 235.426 185.843,245.925 183.284,245.351 179.849 C 245.063 178.129,243.992 175.193,243.667 175.234 C 243.520 175.253,242.860 175.435,242.200 175.639 M39.320 292.336 C 35.357 293.654,35.387 293.627,36.164 295.131 C 37.335 297.395,40.594 299.098,44.747 299.616 C 47.946 300.015,48.125 300.209,48.334 303.501 C 48.501 306.130,51.236 310.521,55.856 315.577 C 57.005 316.836,59.839 312.692,60.808 308.337 L 61.311 306.074 59.482 303.323 C 56.920 299.470,56.703 299.327,53.079 299.107 C 49.367 298.882,49.123 298.689,48.883 295.794 L 48.698 293.560 46.360 292.380 C 43.548 290.960,43.458 290.960,39.320 292.336 M204.259 292.613 C 202.877 293.574,202.743 293.816,202.968 294.943 C 203.582 298.017,205.648 298.703,214.490 298.766 L 219.179 298.800 219.755 297.686 C 222.124 293.106,220.942 292.187,212.199 291.814 L 205.800 291.541 204.259 292.613 M303.106 292.863 L 300.812 293.663 301.413 294.825 C 302.484 296.897,303.949 297.332,310.866 297.636 C 318.549 297.973,318.000 297.609,318.000 302.369 L 318.000 306.291 320.376 306.795 C 326.663 308.129,327.831 310.763,327.704 323.319 L 327.624 331.238 325.456 334.919 C 324.263 336.943,322.431 339.762,321.384 341.182 C 319.655 343.528,319.546 343.802,320.192 344.182 C 323.596 346.183,326.916 349.887,329.011 354.021 L 330.064 356.099 329.035 363.030 C 327.911 370.602,326.601 374.880,324.152 378.982 L 322.708 381.400 323.412 383.479 C 324.497 386.683,328.749 390.776,331.015 390.796 C 331.571 390.801,333.683 387.216,335.008 384.020 L 336.077 381.441 335.225 373.820 C 334.756 369.629,333.998 363.971,333.539 361.247 L 332.706 356.295 333.749 352.847 C 336.204 344.737,336.259 340.275,334.001 332.405 C 333.824 331.787,333.842 329.868,334.041 328.141 C 334.717 322.272,334.579 316.522,333.635 311.200 C 332.446 304.496,332.518 304.564,326.399 304.312 C 319.590 304.032,319.176 303.631,318.568 296.744 L 318.298 293.688 312.849 292.840 C 306.375 291.832,306.060 291.833,303.106 292.863 M191.465 303.199 C 188.499 306.403,188.785 309.076,192.353 311.480 C 193.908 312.528,193.726 312.618,198.051 308.649 C 200.583 306.326,200.747 305.851,199.746 303.743 C 198.088 300.248,194.420 300.007,191.465 303.199 M17.589 301.859 C 13.019 304.905,12.813 305.574,13.999 313.513 C 14.808 318.924,15.199 320.065,17.300 323.136 C 18.789 325.312,18.837 325.254,20.591 319.200 C 22.436 312.829,23.626 310.470,26.244 307.994 L 28.350 306.002 27.327 304.787 C 25.089 302.126,19.644 300.489,17.589 301.859 M228.400 301.869 C 225.775 302.288,224.070 303.244,223.388 304.681 C 222.569 306.407,222.597 306.436,227.947 309.444 L 231.294 311.326 232.614 309.763 C 235.383 306.483,235.389 306.442,233.373 303.874 C 231.525 301.519,231.260 301.412,228.400 301.869 M293.020 304.468 C 292.067 306.850,293.443 308.087,295.424 306.628 C 296.186 306.067,296.186 306.031,295.450 304.652 C 294.368 302.627,293.774 302.582,293.020 304.468 M180.760 319.900 C 180.528 320.505,179.795 323.070,179.129 325.600 L 177.920 330.200 177.860 344.400 L 177.800 358.600 178.929 363.600 C 179.550 366.350,180.334 369.027,180.671 369.549 L 181.283 370.499 182.245 369.537 C 184.291 367.490,184.590 364.395,184.595 345.200 C 184.600 326.653,184.480 325.214,182.573 320.901 C 181.506 318.488,181.336 318.394,180.760 319.900 M290.916 341.390 C 289.129 343.007,288.506 343.824,288.684 344.316 C 289.242 345.867,290.617 347.336,292.152 348.023 L 293.783 348.754 298.463 346.335 C 301.147 344.947,303.064 343.721,302.959 343.458 C 302.431 342.143,298.206 340.050,294.785 339.408 C 293.507 339.169,293.194 339.329,290.916 341.390 M280.701 355.420 C 278.810 359.124,278.986 371.125,281.000 375.818 L 281.507 377.000 282.335 375.185 C 283.570 372.475,283.908 369.397,283.547 364.127 C 283.097 357.553,282.863 356.167,282.030 355.137 L 281.303 354.240 280.701 355.420 M191.121 377.205 C 188.060 379.728,188.289 381.408,192.368 386.327 C 193.754 387.998,193.856 388.045,195.551 387.795 C 198.626 387.340,198.563 387.419,199.021 383.512 L 199.289 381.224 196.781 378.612 C 193.920 375.633,193.235 375.462,191.121 377.205 M227.916 379.192 L 225.232 381.172 225.750 382.668 C 227.037 386.384,230.746 387.057,233.154 384.011 C 235.190 381.434,235.190 381.205,233.149 378.991 C 231.112 376.781,231.188 376.778,227.916 379.192 M391.703 379.348 L 389.853 381.096 390.358 384.048 C 390.636 385.672,391.209 388.499,391.632 390.332 C 392.054 392.164,392.400 395.089,392.400 396.832 L 392.400 400.000 396.200 400.000 L 400.000 400.000 400.000 388.800 L 400.000 377.600 396.777 377.600 L 393.553 377.600 391.703 379.348 M293.233 386.914 C 292.496 388.853,292.000 392.615,292.000 396.273 L 292.000 400.000 303.400 400.000 L 314.800 400.000 314.800 396.747 C 314.800 391.655,311.789 389.638,303.261 389.018 C 298.560 388.676,296.163 388.085,294.791 386.931 L 293.605 385.933 293.233 386.914 M203.267 388.388 C 199.753 388.686,199.600 388.966,199.600 395.076 L 199.600 400.000 211.400 400.000 L 223.200 400.000 223.200 396.160 C 223.200 391.828,222.565 389.906,220.846 389.035 C 219.695 388.451,207.713 388.011,203.267 388.388 " stroke="none" fill="#d4dedc" fill-rule="evenodd"></path><path id="path1" d="M354.400 3.368 L 354.400 6.736 352.418 8.904 C 350.603 10.891,346.214 13.600,344.813 13.600 C 343.904 13.600,342.082 15.191,340.837 17.069 L 339.600 18.937 339.600 25.080 C 339.600 31.632,340.080 33.413,342.759 36.795 L 343.547 37.790 344.602 36.798 C 345.183 36.252,346.644 33.786,347.849 31.317 C 350.205 26.490,351.839 24.649,354.662 23.637 C 356.469 22.990,358.239 21.597,359.512 19.819 L 360.424 18.546 359.146 12.773 C 358.443 9.598,357.795 5.425,357.706 3.500 L 357.543 0.000 355.972 0.000 L 354.400 0.000 354.400 3.368 M357.830 14.097 L 358.963 18.794 357.629 20.171 C 356.780 21.046,355.758 21.638,354.823 21.796 C 350.881 22.462,347.778 25.535,346.622 29.918 C 346.185 31.574,344.205 35.200,343.738 35.200 C 343.652 35.200,343.046 34.355,342.391 33.322 L 341.200 31.443 341.200 25.098 L 341.200 18.753 342.467 17.177 C 343.205 16.258,344.081 15.598,344.567 15.596 C 348.320 15.576,355.947 10.933,356.012 8.628 C 356.043 7.543,356.795 9.805,357.830 14.097 M37.200 46.254 C 21.543 47.624,13.047 55.058,8.822 71.082 C 7.958 74.360,6.804 75.200,3.164 75.200 C 0.056 75.200,0.000 75.218,0.000 76.200 C 0.000 77.837,6.331 77.730,7.996 76.066 C 9.102 74.960,10.400 71.555,10.400 69.759 C 10.400 63.996,18.832 53.353,26.261 49.739 L 30.156 47.845 36.778 47.316 L 43.400 46.787 50.000 48.428 C 59.133 50.699,61.665 52.559,63.535 58.370 C 64.506 61.385,64.363 61.205,70.297 66.908 C 72.186 68.723,73.140 70.884,74.640 76.751 C 77.149 86.557,75.686 127.370,72.640 132.568 C 71.660 134.240,67.876 138.000,67.174 138.000 C 66.739 138.000,64.801 141.288,64.796 142.035 C 64.769 146.017,59.630 150.680,53.400 152.376 C 49.823 153.349,48.372 154.102,45.657 156.391 L 43.796 157.960 37.398 156.638 C 31.538 155.426,30.728 155.151,27.767 153.358 C 25.988 152.281,23.041 150.784,21.217 150.031 C 16.182 147.953,14.436 146.013,12.638 140.501 C 7.772 125.579,7.785 125.600,3.130 125.600 L 0.000 125.600 0.000 126.800 L 0.000 128.000 3.193 128.000 L 6.387 128.000 7.388 129.976 C 8.538 132.246,10.793 138.168,11.995 142.078 C 13.256 146.179,15.705 148.630,21.132 151.221 C 25.755 153.427,28.825 155.222,30.400 156.639 C 31.194 157.353,32.660 157.750,37.529 158.567 C 44.311 159.707,44.062 159.743,47.019 157.184 C 49.180 155.313,51.730 153.947,54.714 153.062 C 59.650 151.598,62.905 148.912,64.667 144.848 C 66.484 140.658,66.933 139.983,69.168 138.090 C 74.683 133.419,75.651 130.405,76.457 115.400 C 77.012 105.079,76.615 81.344,75.820 77.333 C 74.310 69.705,73.547 68.210,68.810 63.600 C 65.753 60.625,65.183 59.845,64.245 57.356 C 62.107 51.685,59.515 49.796,50.879 47.614 C 47.646 46.797,44.640 46.035,44.200 45.921 C 43.760 45.806,40.610 45.956,37.200 46.254 M226.600 46.236 C 224.400 46.530,221.420 46.935,219.978 47.136 C 214.990 47.830,210.465 50.797,207.905 55.052 C 207.226 56.181,206.187 57.390,205.595 57.739 C 201.285 60.285,198.747 65.387,198.002 73.000 C 197.766 75.420,197.409 78.390,197.210 79.600 C 197.011 80.810,196.635 83.420,196.374 85.400 C 196.114 87.380,195.575 90.057,195.177 91.350 C 194.395 93.887,194.697 98.336,196.224 106.800 C 196.562 108.670,197.084 112.551,197.384 115.424 C 198.750 128.478,200.929 133.214,207.528 137.471 C 209.368 138.658,212.612 141.306,214.737 143.355 C 219.036 147.501,218.819 147.404,226.893 148.781 L 231.347 149.541 233.841 148.411 C 235.302 147.748,237.404 146.284,238.919 144.875 C 242.871 141.199,243.486 140.973,245.711 142.384 C 247.803 143.711,247.844 143.806,248.386 148.600 C 249.408 157.632,247.624 162.150,241.889 165.056 C 240.810 165.603,239.164 166.754,238.230 167.615 C 237.296 168.476,235.337 169.740,233.876 170.423 L 231.220 171.666 226.910 170.595 C 221.965 169.365,219.157 168.090,217.293 166.226 C 214.100 163.034,207.084 160.434,204.806 161.599 C 201.508 163.287,198.510 167.448,198.962 169.710 C 199.467 172.236,201.721 176.044,203.710 177.729 C 204.794 178.648,207.151 180.851,208.949 182.625 C 214.855 188.453,222.974 190.157,237.533 188.625 C 245.723 187.763,248.135 186.513,251.401 181.438 C 252.945 179.038,253.927 178.117,256.509 176.645 C 262.356 173.310,263.846 169.019,264.998 152.200 C 265.264 148.319,265.633 145.095,266.600 138.200 C 267.479 131.940,267.941 119.957,267.557 113.400 C 266.513 95.568,266.442 93.437,266.801 90.492 C 268.131 79.567,267.993 58.270,266.579 56.111 C 264.451 52.864,258.405 50.537,249.039 49.360 C 244.501 48.790,239.343 47.849,236.137 47.005 C 233.200 46.232,230.752 45.623,230.698 45.651 C 230.644 45.678,228.800 45.942,226.600 46.236 M343.171 46.147 C 343.077 46.233,340.309 46.517,337.021 46.779 C 327.757 47.515,323.457 49.110,318.184 53.769 L 315.609 56.044 316.649 58.122 C 319.728 64.272,324.257 65.765,337.169 64.888 C 344.429 64.394,344.594 64.423,348.714 66.910 C 350.236 67.829,351.155 68.765,351.992 70.248 C 352.632 71.382,354.409 73.432,355.941 74.803 C 357.472 76.174,359.209 78.185,359.800 79.271 L 360.875 81.247 358.738 83.379 L 356.600 85.512 351.200 85.763 C 348.230 85.902,342.380 86.159,338.200 86.334 C 328.580 86.739,325.411 88.042,322.003 92.996 C 321.299 94.019,319.818 95.339,318.419 96.188 C 311.479 100.405,310.546 103.769,310.435 124.988 C 310.345 142.295,312.660 148.443,320.379 151.392 C 323.909 152.741,327.375 154.835,329.483 156.891 L 331.166 158.533 337.419 158.087 L 343.673 157.641 345.537 155.908 C 351.134 150.702,355.076 149.971,364.392 152.415 L 368.939 153.608 369.970 152.719 C 371.969 150.993,372.882 149.771,374.234 147.011 L 375.600 144.223 375.600 114.811 C 375.599 73.106,375.229 70.164,369.189 63.800 C 367.392 61.907,366.299 60.352,365.816 59.000 C 362.891 50.813,360.749 49.180,350.600 47.407 C 347.300 46.830,344.317 46.275,343.971 46.175 C 343.625 46.074,343.265 46.062,343.171 46.147 M236.620 48.198 C 239.673 48.967,244.337 49.876,246.985 50.219 C 263.058 52.299,265.303 54.174,266.601 66.600 C 267.029 70.700,265.481 85.662,264.074 91.019 C 263.251 94.155,263.533 98.357,265.202 107.800 C 267.009 118.029,266.977 121.234,264.929 134.600 C 264.165 139.585,263.804 143.963,263.576 151.000 C 263.175 163.349,262.488 168.620,260.979 170.911 C 259.757 172.767,256.850 175.600,256.169 175.600 C 255.076 175.600,251.901 178.232,250.928 179.943 C 248.249 184.659,245.406 186.547,239.695 187.408 C 224.804 189.650,216.063 187.944,209.405 181.495 C 207.642 179.787,205.287 177.516,204.172 176.448 C 202.378 174.729,200.638 171.878,199.847 169.358 C 199.183 167.241,204.638 161.739,207.019 162.126 C 209.606 162.545,214.516 165.264,216.784 167.532 C 221.886 172.635,231.953 173.739,237.472 169.801 C 238.533 169.045,240.597 167.613,242.061 166.619 C 248.552 162.210,250.206 158.590,249.789 149.697 L 249.503 143.589 248.298 142.575 C 244.450 139.338,242.567 139.504,238.520 143.442 C 237.139 144.785,234.937 146.455,233.626 147.154 L 231.243 148.424 227.122 147.589 C 219.317 146.008,218.945 145.840,215.487 142.330 C 213.691 140.507,210.719 138.100,208.461 136.639 C 202.593 132.844,201.404 130.896,199.154 121.400 C 198.068 116.812,197.821 88.996,198.754 76.200 C 199.494 66.056,199.992 64.724,204.828 59.956 C 206.750 58.062,208.600 55.973,208.941 55.314 C 211.657 50.061,216.374 48.206,230.435 46.861 C 230.784 46.827,233.567 47.429,236.620 48.198 M149.544 48.780 C 144.614 50.144,143.439 50.316,137.344 50.564 L 130.600 50.839 127.000 52.584 C 121.833 55.089,121.157 55.744,120.755 58.628 C 119.806 65.450,119.562 80.581,120.211 92.400 C 120.568 98.890,120.961 113.162,121.084 124.115 L 121.308 144.031 123.613 146.115 C 124.881 147.262,127.101 148.830,128.548 149.600 L 131.178 151.000 132.367 149.800 C 133.022 149.140,134.197 147.531,134.978 146.224 L 136.400 143.847 136.400 125.624 C 136.400 105.663,136.662 101.705,138.864 88.400 C 140.443 78.867,141.088 77.644,146.000 74.886 C 148.339 73.573,149.874 72.106,151.941 69.209 C 152.643 68.224,153.979 66.930,154.909 66.334 C 163.878 60.585,165.595 55.847,160.670 50.446 C 157.411 46.871,156.782 46.777,149.544 48.780 M350.400 48.232 C 359.402 49.731,362.751 52.059,364.269 57.870 C 365.153 61.256,365.798 62.308,368.836 65.320 C 371.768 68.226,371.751 68.190,373.328 75.000 C 374.130 78.465,374.166 79.836,374.296 111.515 L 374.431 144.430 373.189 146.759 C 372.507 148.040,371.266 149.754,370.433 150.568 L 368.918 152.048 362.562 150.685 C 354.486 148.954,348.476 150.065,344.836 153.961 C 343.855 155.011,343.294 155.195,339.372 155.752 C 331.783 156.829,331.531 156.807,329.466 154.904 C 327.414 153.012,324.888 151.642,321.254 150.449 C 312.618 147.614,311.089 142.520,311.668 118.508 C 312.048 102.732,312.759 100.687,319.115 97.100 C 320.440 96.353,321.842 95.097,322.799 93.801 C 327.118 87.955,331.676 86.800,350.437 86.800 L 356.687 86.800 358.536 85.173 C 361.714 82.376,362.106 81.600,361.381 79.542 C 360.504 77.053,358.987 75.025,357.349 74.154 C 356.570 73.739,354.956 72.106,353.762 70.524 C 351.295 67.255,350.279 66.439,346.604 64.773 L 343.992 63.588 337.441 64.033 C 326.401 64.782,320.962 62.941,318.151 57.505 C 316.377 54.074,325.962 48.678,335.400 47.795 C 343.005 47.083,343.614 47.101,350.400 48.232 M160.049 51.377 C 160.653 52.050,161.537 53.427,162.013 54.437 L 162.878 56.274 161.825 58.350 C 160.446 61.072,158.282 63.190,155.203 64.831 C 153.390 65.797,152.259 66.769,151.076 68.381 C 149.006 71.197,147.706 72.418,144.598 74.461 C 141.214 76.687,139.426 79.421,138.817 83.301 C 138.567 84.896,138.017 87.910,137.594 90.000 C 135.635 99.683,134.876 111.111,134.829 131.656 L 134.800 144.313 133.483 146.223 C 131.291 149.405,129.622 149.158,125.057 144.975 L 123.632 143.670 123.617 125.713 C 123.606 112.380,123.454 106.679,123.028 103.577 C 120.357 84.159,120.406 68.322,123.168 58.111 C 124.204 54.281,128.644 52.376,138.000 51.748 C 144.136 51.336,145.691 51.081,150.600 49.679 L 156.200 48.080 157.575 49.117 C 158.331 49.688,159.444 50.705,160.049 51.377 M229.400 63.455 C 228.960 63.567,226.440 64.195,223.800 64.851 C 218.612 66.141,216.720 67.127,215.839 69.000 C 213.225 74.556,209.669 90.878,209.956 96.000 C 210.355 103.118,212.659 115.651,214.317 119.714 C 215.341 122.226,217.468 123.793,221.461 124.978 C 225.076 126.051,229.848 127.864,230.642 128.467 C 230.903 128.664,232.134 128.327,233.642 127.645 C 235.049 127.008,237.976 125.933,240.147 125.255 C 245.614 123.549,248.800 120.494,248.800 116.958 C 248.800 116.472,249.504 113.582,250.364 110.537 C 251.709 105.773,253.223 95.905,252.931 93.800 C 251.212 81.403,246.084 67.497,242.678 65.996 C 238.950 64.355,231.488 62.927,229.400 63.455 M35.160 64.151 C 32.357 64.422,30.219 64.830,29.760 65.180 C 27.632 66.804,26.762 67.911,26.155 69.765 C 24.581 74.571,20.631 80.722,17.567 83.138 C 14.484 85.569,13.611 89.255,13.605 99.865 C 13.598 111.710,14.928 118.009,17.714 119.333 C 20.256 120.541,23.008 124.397,24.441 128.757 C 26.593 135.304,28.372 136.529,37.200 137.543 L 43.800 138.302 47.726 136.272 C 60.290 129.776,61.751 126.748,62.239 106.200 C 62.693 87.125,61.408 77.714,58.002 75.179 C 56.282 73.898,52.599 70.224,50.659 67.853 C 47.367 63.831,44.806 63.219,35.160 64.151 M235.726 64.991 C 242.461 66.741,243.668 67.517,245.341 71.177 C 251.487 84.621,252.817 97.140,249.468 110.000 C 248.924 112.090,248.253 114.970,247.978 116.400 C 247.086 121.036,245.491 122.592,240.033 124.152 C 237.961 124.744,235.157 125.672,233.802 126.214 L 231.338 127.200 228.884 126.203 C 226.718 125.323,222.715 124.139,219.531 123.436 C 216.974 122.872,214.725 119.802,214.230 116.200 C 214.079 115.100,213.520 112.360,212.988 110.111 C 210.365 99.022,211.099 86.048,215.004 74.513 C 217.524 67.067,216.938 67.582,225.400 65.382 C 231.673 63.751,231.044 63.774,235.726 64.991 M47.363 66.123 C 48.770 67.057,50.137 68.416,50.975 69.713 C 52.368 71.870,54.322 73.862,56.869 75.721 C 59.296 77.492,60.306 80.159,60.764 86.000 C 62.326 105.910,61.352 121.722,58.287 126.200 C 55.876 129.723,50.719 133.856,45.871 136.149 L 43.792 137.133 37.427 136.534 C 29.512 135.789,26.610 134.081,25.818 129.701 C 25.421 127.503,22.657 122.018,21.132 120.400 C 13.693 112.510,12.363 95.416,18.449 85.924 C 19.742 83.907,20.800 82.047,20.800 81.791 C 20.800 81.534,21.176 80.983,21.637 80.567 C 22.993 79.339,25.092 75.443,26.415 71.695 C 28.343 66.231,29.154 65.622,35.400 64.943 C 42.680 64.153,44.695 64.352,47.363 66.123 M338.251 102.030 C 330.043 103.475,329.926 103.559,327.492 109.800 C 324.567 117.298,324.485 117.806,324.996 125.200 C 325.265 129.094,325.672 132.210,325.989 132.800 C 327.904 136.372,330.563 138.386,333.422 138.431 C 334.510 138.447,337.290 138.692,339.600 138.974 L 343.800 139.486 346.669 138.319 C 355.965 134.536,363.009 123.898,361.639 115.711 C 360.278 107.576,358.158 103.738,354.517 102.821 C 348.259 101.245,343.912 101.034,338.251 102.030 M348.672 102.995 C 357.019 104.439,357.677 105.079,359.948 113.963 L 361.114 118.526 360.379 120.660 C 357.817 128.107,353.092 133.707,346.736 136.828 L 344.071 138.136 337.573 137.610 L 331.074 137.084 329.546 135.703 C 326.574 133.019,326.303 132.220,325.932 125.047 L 325.599 118.606 326.860 114.803 C 327.555 112.711,328.705 109.716,329.417 108.147 L 330.711 105.295 333.373 104.409 C 336.182 103.474,343.383 102.064,344.400 102.250 C 344.730 102.310,346.653 102.645,348.672 102.995 M116.659 253.986 L 114.651 255.901 115.172 258.251 C 115.873 261.411,118.372 267.602,118.942 267.591 C 120.041 267.569,128.714 259.072,130.016 256.742 C 130.431 255.998,126.638 254.271,121.433 252.834 L 118.667 252.070 116.659 253.986 M123.100 255.081 C 126.617 256.325,126.656 255.826,122.729 259.849 C 120.049 262.595,118.400 263.826,118.400 263.081 C 118.400 263.015,117.868 261.441,117.217 259.582 L 116.034 256.203 117.297 254.900 C 118.693 253.459,118.497 253.453,123.100 255.081 M37.200 287.587 C 30.456 289.011,24.894 290.862,21.876 292.684 C 20.597 293.456,18.223 294.419,16.599 294.825 C 11.203 296.174,7.940 298.508,6.711 301.900 L 6.239 303.200 3.120 303.200 L 0.000 303.200 0.000 344.600 L 0.000 386.000 3.204 386.000 L 6.408 386.000 9.385 388.761 C 11.023 390.279,13.087 392.034,13.973 392.661 L 15.583 393.800 15.591 396.900 L 15.600 400.000 17.600 400.000 L 19.600 400.000 19.600 396.843 C 19.600 394.572,19.954 392.354,20.860 388.943 L 22.120 384.200 22.411 358.000 C 22.616 339.529,22.840 331.453,23.171 330.622 C 23.428 329.974,24.150 326.872,24.774 323.728 C 26.936 312.841,28.528 311.544,42.436 309.340 C 44.862 308.955,50.811 316.813,52.231 322.279 C 52.786 324.415,53.688 327.284,54.237 328.655 C 55.619 332.110,55.972 339.036,55.987 363.009 L 56.000 382.218 57.500 384.758 C 58.325 386.155,60.215 388.813,61.700 390.666 L 64.400 394.034 64.400 397.017 L 64.400 400.000 67.200 400.000 L 70.000 400.000 70.000 397.026 C 70.000 395.390,70.168 393.611,70.373 393.071 C 70.578 392.532,71.208 389.808,71.773 387.019 L 72.800 381.947 72.790 355.874 C 72.777 323.837,72.502 320.521,69.491 316.060 C 67.011 312.385,66.861 312.041,65.987 308.040 C 63.806 298.045,56.626 290.321,46.658 287.246 C 43.312 286.214,43.781 286.197,37.200 287.587 M203.066 287.779 C 200.061 289.014,197.803 290.591,196.244 292.545 C 195.560 293.402,193.898 294.801,192.552 295.654 C 188.857 297.997,186.591 300.670,184.526 305.124 C 183.101 308.198,182.219 309.500,180.264 311.416 C 174.459 317.109,173.795 320.565,173.813 345.000 C 173.830 368.660,174.465 371.981,180.051 377.620 C 181.525 379.107,182.874 380.954,183.494 382.333 C 184.963 385.598,187.635 389.496,189.973 391.785 L 192.000 393.770 192.000 396.885 C 192.000 399.733,192.068 400.000,192.800 400.000 C 193.532 400.000,193.600 399.733,193.600 396.885 L 193.600 393.770 191.564 391.785 C 188.794 389.084,186.260 385.475,184.579 381.836 C 183.595 379.707,182.472 378.099,180.820 376.452 C 175.486 371.134,174.736 367.512,174.514 346.000 C 174.266 322.024,175.272 317.750,182.731 311.086 C 183.475 310.421,184.207 309.200,184.546 308.057 C 185.997 303.172,188.962 299.257,193.352 296.430 C 194.698 295.563,196.790 293.839,198.000 292.599 C 199.436 291.127,201.191 289.866,203.057 288.965 L 205.913 287.586 212.257 287.835 C 220.151 288.146,220.977 288.472,225.400 293.021 C 227.360 295.038,229.419 296.723,230.714 297.370 C 233.710 298.869,235.725 300.838,237.227 303.735 L 238.527 306.243 237.198 308.944 C 235.856 311.669,232.537 315.200,231.317 315.200 C 230.310 315.200,224.755 312.636,221.800 310.806 C 219.305 309.262,218.308 308.931,212.637 307.764 L 206.274 306.454 203.515 309.408 C 200.589 312.541,195.993 316.211,193.129 317.701 C 188.827 319.938,187.274 331.642,188.365 353.600 C 188.998 366.339,189.683 368.620,193.524 370.789 C 197.061 372.785,200.084 375.574,202.595 379.158 C 205.822 383.763,205.396 383.560,211.000 383.163 C 219.010 382.596,218.865 382.639,220.736 380.338 C 224.007 376.316,229.941 372.747,231.962 373.584 C 233.472 374.210,236.540 377.423,237.603 379.492 C 238.972 382.156,236.665 386.757,232.397 389.878 C 228.028 393.072,228.000 393.116,228.000 396.743 C 228.000 401.504,229.115 401.480,229.284 396.715 L 229.400 393.431 231.164 392.215 C 240.371 385.873,241.262 378.567,233.460 373.387 L 231.324 371.969 228.762 373.057 C 225.164 374.585,222.444 376.445,220.160 378.940 L 218.196 381.083 213.398 381.583 C 205.312 382.424,206.143 382.625,204.142 379.349 C 202.135 376.062,197.899 371.887,194.735 370.077 C 190.907 367.887,189.705 363.937,189.203 351.891 C 188.251 329.068,189.771 321.469,196.119 317.300 C 197.704 316.259,200.673 313.779,202.718 311.788 C 204.762 309.797,206.472 308.202,206.518 308.243 C 206.563 308.283,209.365 308.796,212.745 309.382 C 217.154 310.146,219.308 310.711,220.371 311.382 C 229.026 316.846,232.344 317.234,235.752 313.184 C 240.878 307.092,239.235 300.840,231.400 296.619 C 229.871 295.796,228.361 294.541,227.240 293.163 C 222.973 287.917,220.181 286.796,211.427 286.809 C 205.994 286.818,205.170 286.913,203.066 287.779 M302.251 287.604 C 290.767 290.024,289.556 291.336,285.815 305.420 C 285.404 306.966,288.850 310.519,292.242 312.047 C 294.202 312.929,298.665 311.885,303.642 309.379 L 306.346 308.017 308.873 309.192 C 310.263 309.838,313.110 310.846,315.200 311.433 C 319.512 312.642,321.043 313.771,322.657 316.929 L 323.642 318.857 322.829 322.129 C 321.845 326.085,319.219 331.467,318.379 331.252 C 318.060 331.170,315.224 330.578,312.075 329.935 L 306.351 328.767 304.075 330.045 C 299.947 332.366,298.228 333.109,295.800 333.625 C 290.825 334.681,285.625 338.325,283.285 342.394 C 282.714 343.387,281.263 345.276,280.060 346.591 C 275.649 351.415,274.468 355.479,274.420 366.000 C 274.368 377.407,276.072 382.733,281.080 386.819 C 285.143 390.135,286.400 392.465,286.400 396.682 C 286.400 399.365,286.515 400.000,287.000 400.000 C 287.482 400.000,287.600 399.388,287.602 396.900 C 287.605 391.461,286.496 389.535,280.410 384.419 C 277.793 382.218,277.467 381.449,276.173 374.407 C 274.060 362.904,275.727 353.177,280.689 348.067 C 281.686 347.040,282.961 345.301,283.522 344.201 C 286.048 339.248,291.330 335.347,296.320 334.748 C 300.276 334.274,302.615 333.483,304.469 331.993 C 306.312 330.512,306.661 330.513,310.791 332.020 C 312.630 332.691,315.185 333.486,316.470 333.785 L 318.806 334.330 320.371 331.665 C 326.752 320.798,324.950 313.130,315.297 310.070 C 313.047 309.357,310.037 308.163,308.607 307.418 C 307.033 306.598,305.909 306.223,305.758 306.469 C 305.354 307.121,299.236 309.958,296.297 310.855 L 293.594 311.680 291.697 310.462 C 290.654 309.793,289.184 308.609,288.432 307.833 L 287.063 306.421 287.741 303.910 C 290.426 293.958,291.898 291.909,297.688 290.059 C 303.993 288.045,305.698 287.841,311.687 288.378 C 319.734 289.100,321.427 289.880,324.428 294.240 C 326.082 296.645,327.437 297.869,329.780 299.075 C 336.724 302.650,338.335 307.683,338.400 326.000 C 338.414 329.850,338.671 335.427,338.972 338.394 C 339.484 343.448,339.465 344.143,338.678 349.394 C 337.656 356.212,337.658 356.011,338.512 367.400 C 338.892 372.460,339.277 377.657,339.368 378.949 C 339.578 381.933,338.183 387.466,336.220 391.438 C 334.329 395.265,334.096 400.000,335.800 400.000 C 336.780 400.000,336.800 399.938,336.800 396.931 C 336.800 394.572,337.037 393.271,337.824 391.304 C 340.519 384.566,340.767 379.079,339.216 360.516 C 338.957 357.418,339.024 355.439,339.494 352.316 C 340.214 347.525,340.287 338.866,339.647 334.010 C 339.401 332.146,339.200 327.916,339.201 324.610 C 339.203 306.766,337.776 302.728,329.607 297.469 C 328.181 296.551,326.603 295.170,326.101 294.400 C 322.765 289.285,320.430 288.067,312.626 287.369 C 305.404 286.724,306.552 286.698,302.251 287.604 M51.158 290.266 C 59.020 294.851,63.851 301.340,65.179 309.099 C 66.071 314.310,66.374 315.126,68.150 317.092 C 70.838 320.067,71.200 324.686,71.200 355.998 L 71.200 382.458 70.174 386.929 C 69.609 389.388,69.005 391.545,68.831 391.723 C 68.402 392.161,65.351 388.701,62.631 384.693 L 60.397 381.400 60.403 363.000 C 60.407 352.579,60.201 341.682,59.928 337.871 L 59.447 331.142 58.223 330.186 C 57.550 329.660,56.714 328.982,56.365 328.680 C 56.016 328.378,55.035 325.986,54.186 323.365 C 52.576 318.395,52.414 318.141,44.200 307.725 C 43.880 307.320,43.199 307.371,40.800 307.981 C 39.150 308.400,36.220 309.052,34.288 309.429 C 28.900 310.480,25.576 314.570,24.025 322.053 C 23.597 324.114,22.878 326.988,22.426 328.440 C 21.224 332.303,20.808 341.162,20.804 362.950 C 20.800 382.024,20.470 386.461,18.826 389.519 C 18.634 389.876,17.151 388.710,14.074 385.781 L 9.600 381.525 9.600 364.064 C 9.600 345.292,9.076 332.844,8.124 329.000 C 7.055 324.688,6.895 306.205,7.906 303.920 C 9.631 300.020,12.625 297.693,18.344 295.807 C 20.184 295.201,23.154 293.936,24.944 292.997 C 28.942 290.901,33.500 289.384,39.340 288.206 L 43.783 287.310 46.549 288.251 C 48.071 288.768,50.144 289.675,51.158 290.266 M117.426 295.702 C 116.915 296.858,115.980 299.333,115.348 301.202 L 114.200 304.600 114.200 343.800 L 114.200 383.000 115.380 388.200 C 116.029 391.060,116.628 394.885,116.710 396.700 C 116.855 399.914,116.885 400.000,117.859 400.000 C 119.328 400.000,119.022 395.285,117.066 387.800 L 115.603 382.200 115.602 343.973 C 115.600 302.318,115.486 304.558,117.870 299.228 L 118.867 297.000 121.077 299.400 C 122.293 300.720,123.988 302.825,124.844 304.078 L 126.400 306.356 126.400 343.707 L 126.400 381.058 124.657 384.629 C 123.698 386.593,122.078 389.417,121.057 390.904 C 119.228 393.567,119.200 393.656,119.200 396.804 L 119.200 400.000 121.400 400.000 L 123.600 400.000 123.600 396.944 C 123.600 394.300,123.751 393.640,124.723 392.044 C 125.341 391.030,126.691 388.298,127.723 385.973 L 129.600 381.746 129.600 343.755 L 129.600 305.763 127.515 302.587 C 125.164 299.006,120.063 293.600,119.034 293.600 C 118.601 293.600,118.021 294.358,117.426 295.702 M302.800 348.973 C 300.930 349.952,297.579 351.493,295.353 352.399 C 289.170 354.915,288.402 356.558,288.400 367.281 C 288.400 370.900,290.140 374.037,293.260 376.039 C 294.345 376.734,296.345 378.557,297.706 380.088 C 303.250 386.326,309.990 387.266,314.737 382.462 C 315.749 381.438,317.102 380.203,317.743 379.718 C 322.051 376.454,324.436 371.070,325.230 362.814 L 325.865 356.200 324.653 354.400 C 323.986 353.410,322.440 351.594,321.218 350.365 L 318.994 348.130 314.597 347.851 C 312.179 347.698,309.300 347.487,308.200 347.383 C 306.420 347.213,305.827 347.388,302.800 348.973 M320.714 351.333 C 324.746 355.274,324.905 355.664,324.420 360.393 C 324.189 362.643,324.000 365.376,324.000 366.465 C 324.000 369.687,320.305 376.460,317.666 378.074 C 316.860 378.567,315.287 379.828,314.171 380.876 C 308.728 385.989,303.715 385.617,299.179 379.763 C 298.172 378.463,296.226 376.558,294.855 375.530 C 289.341 371.393,289.061 370.372,290.461 359.462 C 290.979 355.418,291.092 355.294,296.000 353.392 C 297.430 352.838,300.220 351.581,302.200 350.600 L 305.800 348.816 312.200 349.041 L 318.600 349.266 320.714 351.333 M391.200 374.633 C 388.882 375.951,387.367 377.395,386.168 379.429 L 385.207 381.059 386.003 388.029 C 386.441 391.862,386.800 396.124,386.800 397.499 C 386.800 399.455,386.931 400.000,387.400 400.000 C 388.263 400.000,388.187 395.892,387.200 389.200 C 386.115 381.840,386.146 381.084,387.629 379.019 C 390.066 375.626,392.495 374.400,396.780 374.400 C 398.660 374.400,400.000 374.234,400.000 374.000 C 400.000 373.055,393.102 373.551,391.200 374.633 " stroke="none" fill="#92acac" fill-rule="evenodd"></path><path id="path2" d="M356.012 8.628 C 355.947 10.933,348.320 15.576,344.567 15.596 C 344.081 15.598,343.205 16.258,342.467 17.177 L 341.200 18.753 341.200 25.098 L 341.200 31.443 342.391 33.322 C 343.046 34.355,343.652 35.200,343.738 35.200 C 344.205 35.200,346.185 31.574,346.622 29.918 C 347.778 25.535,350.881 22.462,354.823 21.796 C 355.758 21.638,356.780 21.046,357.629 20.171 L 358.963 18.794 357.830 14.097 C 356.795 9.805,356.043 7.543,356.012 8.628 M356.706 17.189 C 357.224 19.230,357.034 19.365,352.831 19.939 C 346.789 20.765,345.536 21.995,344.797 27.824 C 343.903 34.876,343.200 33.721,343.200 25.200 C 343.200 17.469,342.861 18.069,347.504 17.589 C 349.431 17.390,352.085 16.879,353.403 16.453 C 354.721 16.028,355.913 15.662,356.051 15.640 C 356.190 15.618,356.484 16.315,356.706 17.189 M35.800 47.362 C 24.604 48.278,16.483 54.441,11.781 65.588 C 11.022 67.390,10.400 69.266,10.400 69.759 C 10.400 74.620,7.983 77.200,3.431 77.200 L 0.000 77.200 0.000 78.600 L 0.000 80.000 5.167 80.000 C 8.009 80.000,10.619 80.109,10.967 80.243 C 11.524 80.456,11.602 81.890,11.613 92.143 C 11.629 105.905,12.175 118.432,12.811 119.621 C 13.374 120.673,15.518 121.600,17.388 121.600 C 19.263 121.600,21.819 124.981,23.685 129.927 C 26.147 136.455,27.861 137.529,37.800 138.775 L 43.800 139.527 47.063 138.007 C 48.858 137.171,51.648 135.623,53.263 134.568 C 54.878 133.513,56.919 132.279,57.797 131.825 C 61.543 129.890,62.347 126.844,63.244 111.194 C 63.632 104.411,63.634 100.747,63.252 93.904 C 62.307 77.001,61.790 75.066,57.631 72.849 C 55.826 71.887,54.784 70.937,53.221 68.828 C 49.103 63.273,46.254 62.252,37.031 63.027 C 27.382 63.837,27.662 63.640,23.667 72.400 C 22.814 74.270,21.340 76.763,20.391 77.941 L 18.667 80.082 15.634 79.805 C 11.793 79.455,12.008 79.767,11.733 74.163 C 11.422 67.821,12.791 64.298,18.059 57.890 C 23.548 51.214,28.032 48.986,37.000 48.478 L 43.400 48.115 49.852 49.618 C 57.277 51.347,57.198 51.313,59.651 53.870 C 61.222 55.507,61.609 56.244,62.202 58.730 C 63.116 62.561,64.807 65.063,67.364 66.370 C 69.771 67.601,71.072 69.532,72.869 74.547 L 74.179 78.200 74.306 99.167 C 74.441 121.389,74.221 124.672,72.212 130.367 C 71.402 132.663,69.332 135.107,67.940 135.413 C 65.353 135.981,64.001 137.935,63.382 142.000 C 62.734 146.250,58.464 150.447,54.289 150.938 C 50.690 151.361,47.107 152.661,45.318 154.192 L 43.669 155.603 40.901 155.021 C 39.379 154.701,36.532 154.240,34.574 153.997 C 31.940 153.669,30.545 153.269,29.207 152.458 C 27.023 151.132,23.372 149.404,20.433 148.303 C 16.961 147.004,15.202 144.872,14.042 140.561 C 13.515 138.603,12.649 135.830,12.118 134.400 C 11.586 132.970,10.987 130.381,10.787 128.647 C 10.205 123.604,9.156 122.807,3.100 122.802 L 0.000 122.800 0.000 124.200 L 0.000 125.600 3.130 125.600 C 7.785 125.600,7.772 125.579,12.638 140.501 C 14.436 146.013,16.182 147.953,21.217 150.031 C 23.041 150.784,25.988 152.281,27.767 153.358 C 30.728 155.151,31.538 155.426,37.398 156.638 L 43.796 157.960 45.657 156.391 C 48.372 154.102,49.823 153.349,53.400 152.376 C 59.630 150.680,64.769 146.017,64.796 142.035 C 64.801 141.288,66.739 138.000,67.174 138.000 C 67.876 138.000,71.660 134.240,72.640 132.568 C 75.686 127.370,77.149 86.557,74.640 76.751 C 73.140 70.884,72.186 68.723,70.297 66.908 C 64.363 61.205,64.506 61.385,63.535 58.370 C 62.539 55.275,60.356 52.373,57.883 50.858 C 56.442 49.975,44.114 46.772,42.465 46.852 C 41.879 46.880,38.880 47.110,35.800 47.362 M224.400 47.490 C 216.456 48.326,211.172 51.000,208.941 55.314 C 208.600 55.973,206.750 58.062,204.828 59.956 C 198.754 65.944,198.158 69.646,198.251 100.800 C 198.327 126.172,199.693 130.968,208.461 136.639 C 210.719 138.100,213.691 140.507,215.487 142.330 C 218.945 145.840,219.317 146.008,227.122 147.589 L 231.243 148.424 233.626 147.154 C 234.937 146.455,237.139 144.785,238.520 143.442 C 242.567 139.504,244.450 139.338,248.298 142.575 L 249.503 143.589 249.789 149.697 C 250.206 158.590,248.552 162.210,242.061 166.619 C 240.597 167.613,238.533 169.045,237.472 169.801 C 231.953 173.739,221.886 172.635,216.784 167.532 C 214.516 165.264,209.606 162.545,207.019 162.126 C 204.638 161.739,199.183 167.241,199.847 169.358 C 200.638 171.878,202.378 174.729,204.172 176.448 C 205.287 177.516,207.642 179.787,209.405 181.495 C 216.063 187.944,224.804 189.650,239.695 187.408 C 245.406 186.547,248.249 184.659,250.928 179.943 C 251.901 178.232,255.076 175.600,256.169 175.600 C 256.850 175.600,259.757 172.767,260.979 170.911 C 262.488 168.620,263.175 163.349,263.576 151.000 C 263.804 143.963,264.165 139.585,264.929 134.600 C 266.977 121.234,267.009 118.029,265.202 107.800 C 263.533 98.357,263.251 94.155,264.074 91.019 C 265.481 85.662,267.029 70.700,266.601 66.600 C 265.303 54.174,263.058 52.299,246.985 50.219 C 244.337 49.876,239.673 48.967,236.620 48.198 C 233.567 47.429,230.784 46.827,230.435 46.861 C 230.086 46.894,227.370 47.177,224.400 47.490 M335.400 47.795 C 325.962 48.678,316.377 54.074,318.151 57.505 C 320.962 62.941,326.401 64.782,337.441 64.033 L 343.992 63.588 346.604 64.773 C 350.279 66.439,351.295 67.255,353.762 70.524 C 354.956 72.106,356.570 73.739,357.349 74.154 C 358.987 75.025,360.504 77.053,361.381 79.542 C 362.106 81.600,361.714 82.376,358.536 85.173 L 356.687 86.800 350.437 86.800 C 331.676 86.800,327.118 87.955,322.799 93.801 C 321.842 95.097,320.440 96.353,319.115 97.100 C 312.759 100.687,312.048 102.732,311.668 118.508 C 311.089 142.520,312.618 147.614,321.254 150.449 C 324.888 151.642,327.414 153.012,329.466 154.904 C 331.531 156.807,331.783 156.829,339.372 155.752 C 343.294 155.195,343.855 155.011,344.836 153.961 C 348.476 150.065,354.486 148.954,362.562 150.685 L 368.918 152.048 370.433 150.568 C 371.266 149.754,372.507 148.040,373.189 146.759 L 374.431 144.430 374.296 111.515 C 374.166 79.836,374.130 78.465,373.328 75.000 C 371.751 68.190,371.768 68.226,368.836 65.320 C 365.798 62.308,365.153 61.256,364.269 57.870 C 362.751 52.059,359.402 49.731,350.400 48.232 C 343.614 47.101,343.005 47.083,335.400 47.795 M150.600 49.679 C 145.691 51.081,144.136 51.336,138.000 51.748 C 128.644 52.376,124.204 54.281,123.168 58.111 C 120.406 68.322,120.357 84.159,123.028 103.577 C 123.454 106.679,123.606 112.380,123.617 125.713 L 123.632 143.670 125.057 144.975 C 129.622 149.158,131.291 149.405,133.483 146.223 L 134.800 144.313 134.829 131.656 C 134.876 111.111,135.635 99.683,137.594 90.000 C 138.017 87.910,138.567 84.896,138.817 83.301 C 139.426 79.421,141.214 76.687,144.598 74.461 C 147.706 72.418,149.006 71.197,151.076 68.381 C 152.259 66.769,153.390 65.797,155.203 64.831 C 158.282 63.190,160.446 61.072,161.825 58.350 L 162.878 56.274 162.013 54.437 C 161.039 52.370,159.603 50.648,157.575 49.117 L 156.200 48.080 150.600 49.679 M237.204 49.586 C 240.035 50.240,244.208 51.050,246.476 51.385 C 260.784 53.499,263.405 55.671,265.178 66.886 C 265.901 71.461,262.901 87.390,260.363 92.449 C 259.757 93.656,259.708 94.156,260.070 95.449 C 260.309 96.302,260.917 99.250,261.421 102.000 C 261.924 104.750,262.697 107.990,263.137 109.200 C 265.713 116.273,265.684 119.436,262.911 133.600 C 260.816 144.302,260.906 142.993,261.794 149.800 C 262.604 156.009,261.790 167.440,260.371 169.800 C 259.131 171.861,256.301 174.241,254.477 174.758 C 252.288 175.378,249.805 177.824,249.151 180.004 C 247.983 183.905,244.928 185.564,236.722 186.755 C 224.434 188.539,214.216 186.013,210.718 180.328 C 209.871 178.952,208.953 178.086,207.631 177.416 C 204.707 175.934,200.800 170.891,200.800 168.599 C 200.800 167.097,205.455 163.072,206.873 163.346 C 210.234 163.996,214.025 166.570,217.400 170.494 C 221.023 174.705,235.528 174.272,240.380 169.808 C 241.381 168.887,243.225 167.462,244.479 166.642 C 248.769 163.834,250.583 159.857,251.203 151.898 C 251.431 148.984,251.770 145.940,251.959 145.133 C 252.276 143.774,252.194 143.562,250.850 142.258 C 246.060 137.608,239.489 137.700,236.817 142.454 C 236.298 143.379,235.015 144.646,233.743 145.490 L 231.561 146.939 228.881 146.415 C 221.627 144.998,219.241 143.945,215.946 140.707 C 214.236 139.026,211.245 136.688,209.146 135.392 C 203.776 132.076,202.783 130.523,200.366 121.668 C 199.368 118.009,199.323 119.798,200.848 102.400 C 201.454 95.478,201.455 92.543,200.852 88.800 C 199.810 82.336,200.182 68.795,201.473 66.157 C 202.790 63.469,204.832 61.042,206.850 59.768 C 207.737 59.209,208.742 58.083,209.234 57.100 C 211.897 51.772,216.356 49.270,224.096 48.758 C 227.233 48.550,230.070 48.316,230.400 48.238 C 230.730 48.159,231.238 48.163,231.528 48.246 C 231.819 48.329,234.373 48.932,237.204 49.586 M350.400 49.336 C 357.534 50.477,361.882 52.901,362.591 56.132 C 362.696 56.609,362.982 58.169,363.226 59.597 C 363.984 64.030,364.539 64.864,368.366 67.323 C 369.957 68.345,370.610 69.999,372.243 77.137 L 373.310 81.800 373.507 112.660 L 373.705 143.520 372.449 145.660 C 371.758 146.837,370.671 148.403,370.033 149.140 L 368.874 150.481 366.137 149.864 C 356.358 147.661,350.843 147.794,345.348 150.366 C 343.008 151.461,337.877 152.812,333.400 153.512 C 331.510 153.808,331.283 153.744,329.263 152.333 C 327.314 150.972,322.856 149.224,319.772 148.612 C 318.562 148.372,316.045 146.250,314.903 144.508 C 313.541 142.430,312.439 131.564,312.865 124.414 C 313.082 120.776,313.142 115.257,312.998 112.148 C 312.655 104.711,315.139 99.601,319.691 98.376 C 322.052 97.740,323.030 96.973,323.933 95.053 C 326.671 89.228,332.692 87.601,349.580 88.121 L 356.560 88.336 358.640 86.956 C 362.182 84.605,363.707 81.926,363.167 79.004 C 362.376 74.724,360.541 72.328,357.604 71.741 C 356.699 71.560,355.893 70.895,354.756 69.388 C 352.968 67.020,351.285 65.746,347.800 64.120 C 345.191 62.902,344.574 62.859,334.400 63.172 C 327.088 63.397,319.600 59.998,319.600 56.453 C 319.600 53.665,328.531 49.294,335.200 48.820 C 342.371 48.309,344.416 48.379,350.400 49.336 M158.169 51.100 C 160.017 52.894,161.600 55.303,161.600 56.322 C 161.600 58.170,157.417 62.652,154.882 63.520 C 152.804 64.231,151.224 65.548,149.800 67.757 C 148.261 70.143,147.107 71.250,143.728 73.576 C 139.690 76.355,138.934 77.827,137.162 86.359 C 133.951 101.830,133.275 109.599,133.227 131.615 L 133.200 144.230 132.100 145.509 L 131.000 146.788 129.100 145.355 L 127.200 143.923 127.201 132.662 C 127.202 119.591,126.622 107.796,125.781 103.800 C 124.971 99.949,123.247 89.820,122.595 85.080 C 121.806 79.346,122.948 67.589,124.874 61.600 C 127.003 54.982,128.314 54.118,137.183 53.492 C 142.063 53.148,143.966 52.805,149.000 51.365 C 156.366 49.258,156.273 49.260,158.169 51.100 M224.800 63.411 C 215.079 65.721,215.333 65.466,212.052 76.200 C 211.178 79.060,210.169 83.183,209.812 85.363 C 209.454 87.543,208.932 90.333,208.651 91.563 C 207.919 94.769,208.836 103.973,210.427 109.400 C 211.072 111.600,211.975 115.058,212.432 117.085 C 213.774 123.024,215.120 124.311,222.400 126.610 C 224.270 127.200,227.014 128.317,228.498 129.090 L 231.196 130.497 234.098 129.067 C 235.694 128.280,238.702 127.081,240.782 126.403 C 247.024 124.368,248.321 122.848,250.344 115.200 C 251.013 112.670,251.866 109.790,252.239 108.800 C 253.481 105.504,254.765 94.106,254.132 92.000 C 253.835 91.010,253.163 88.130,252.639 85.600 C 251.162 78.466,246.789 67.607,244.551 65.517 C 241.690 62.845,231.674 61.777,224.800 63.411 M237.901 64.449 C 243.759 65.978,244.121 66.242,246.132 70.468 C 249.294 77.111,251.818 85.772,252.931 93.800 C 253.223 95.905,251.709 105.773,250.364 110.537 C 249.504 113.582,248.800 116.472,248.800 116.958 C 248.800 120.494,245.614 123.549,240.147 125.255 C 237.976 125.933,235.049 127.008,233.642 127.645 C 232.134 128.327,230.903 128.664,230.642 128.467 C 229.848 127.864,225.076 126.051,221.461 124.978 C 217.468 123.793,215.341 122.226,214.317 119.714 C 212.659 115.651,210.355 103.118,209.956 96.000 C 209.669 90.878,213.225 74.556,215.839 69.000 C 216.720 67.127,218.612 66.141,223.800 64.851 C 226.440 64.195,228.960 63.567,229.400 63.455 C 230.696 63.127,234.572 63.580,237.901 64.449 M46.771 64.785 C 48.222 65.518,49.707 66.689,50.659 67.853 C 52.599 70.224,56.282 73.898,58.002 75.179 C 61.408 77.714,62.693 87.125,62.239 106.200 C 61.751 126.748,60.290 129.776,47.726 136.272 L 43.800 138.302 37.200 137.543 C 28.372 136.529,26.593 135.304,24.441 128.757 C 23.008 124.397,20.256 120.541,17.714 119.333 C 14.928 118.009,13.598 111.710,13.605 99.865 C 13.611 89.255,14.484 85.569,17.567 83.138 C 20.631 80.722,24.581 74.571,26.155 69.765 C 26.762 67.911,27.632 66.804,29.760 65.180 C 30.219 64.830,32.357 64.422,35.160 64.151 C 43.045 63.389,44.122 63.448,46.771 64.785 M340.200 100.427 C 331.811 101.393,330.737 101.644,329.391 102.950 C 327.396 104.886,323.422 116.313,323.544 119.765 C 324.132 136.430,325.801 138.845,337.668 140.205 C 343.975 140.928,344.883 140.850,348.595 139.272 C 357.670 135.414,364.537 124.551,363.180 116.200 C 361.226 104.173,359.486 101.557,352.963 100.840 C 347.248 100.212,343.201 100.081,340.200 100.427 M348.663 101.792 C 358.272 103.158,359.817 104.816,361.639 115.711 C 363.009 123.898,355.965 134.536,346.669 138.319 L 343.800 139.486 339.600 138.974 C 337.290 138.692,334.510 138.447,333.422 138.431 C 330.563 138.386,327.904 136.372,325.989 132.800 C 324.899 130.769,324.426 118.983,325.314 116.000 C 327.768 107.756,329.909 103.871,332.362 103.210 C 338.833 101.468,343.516 101.060,348.663 101.792 M117.297 254.900 L 116.034 256.203 117.217 259.582 C 117.868 261.441,118.400 263.015,118.400 263.081 C 118.400 263.826,120.049 262.595,122.729 259.849 C 126.656 255.826,126.617 256.325,123.100 255.081 C 118.497 253.453,118.693 253.459,117.297 254.900 M120.400 255.994 C 120.908 256.317,120.837 256.539,119.941 257.438 L 118.882 258.500 118.410 257.619 C 117.544 256.000,118.798 254.975,120.400 255.994 M39.340 288.206 C 33.500 289.384,28.942 290.901,24.944 292.997 C 23.154 293.936,20.184 295.201,18.344 295.807 C 12.625 297.693,9.631 300.020,7.906 303.920 C 6.895 306.205,7.055 324.688,8.124 329.000 C 9.076 332.844,9.600 345.292,9.600 364.064 L 9.600 381.525 14.074 385.781 C 17.151 388.710,18.634 389.876,18.826 389.519 C 20.470 386.461,20.800 382.024,20.804 362.950 C 20.808 341.162,21.224 332.303,22.426 328.440 C 22.878 326.988,23.597 324.114,24.025 322.053 C 25.576 314.570,28.900 310.480,34.288 309.429 C 36.220 309.052,39.150 308.400,40.800 307.981 C 43.199 307.371,43.880 307.320,44.200 307.725 C 52.414 318.141,52.576 318.395,54.186 323.365 C 55.035 325.986,56.016 328.378,56.365 328.680 C 56.714 328.982,57.550 329.660,58.223 330.186 L 59.447 331.142 59.928 337.871 C 60.201 341.682,60.407 352.579,60.403 363.000 L 60.397 381.400 62.631 384.693 C 65.351 388.701,68.402 392.161,68.831 391.723 C 69.005 391.545,69.609 389.388,70.174 386.929 L 71.200 382.458 71.200 355.998 C 71.200 324.686,70.838 320.067,68.150 317.092 C 66.374 315.126,66.071 314.310,65.179 309.099 C 63.579 299.753,56.249 291.550,46.549 288.251 L 43.783 287.310 39.340 288.206 M203.000 288.976 C 201.223 289.846,199.396 291.170,198.000 292.600 C 196.790 293.839,194.698 295.563,193.352 296.430 C 188.962 299.257,185.997 303.172,184.546 308.057 C 184.207 309.200,183.475 310.421,182.731 311.086 C 175.272 317.750,174.266 322.024,174.514 346.000 C 174.736 367.512,175.486 371.134,180.820 376.452 C 182.472 378.099,183.595 379.707,184.579 381.836 C 186.260 385.475,188.794 389.084,191.564 391.785 L 193.600 393.770 193.600 396.885 C 193.600 399.941,193.619 400.000,194.600 400.000 C 195.581 400.000,195.600 399.941,195.600 396.889 L 195.600 393.779 192.753 390.989 C 189.119 387.430,186.235 383.076,185.192 379.574 C 184.401 376.916,183.062 375.200,181.780 375.200 C 181.231 375.200,178.915 372.209,177.860 370.136 C 174.308 363.158,174.613 325.372,178.279 318.241 C 179.450 315.962,181.165 314.226,182.658 313.807 C 184.637 313.252,185.494 311.917,186.006 308.600 C 186.751 303.763,190.428 299.039,195.033 297.003 C 196.405 296.396,197.362 295.632,197.958 294.669 C 198.917 293.117,201.569 291.021,204.355 289.614 C 206.033 288.767,206.395 288.740,212.489 289.016 L 218.867 289.305 221.249 290.896 C 222.813 291.941,224.110 293.235,225.025 294.666 C 226.330 296.706,229.355 298.781,231.044 298.796 C 231.982 298.804,235.136 302.065,236.233 304.160 L 237.382 306.354 236.538 308.077 C 235.512 310.174,232.665 313.462,231.577 313.807 C 230.613 314.113,225.435 311.668,221.415 309.008 C 219.883 307.995,217.923 307.007,217.061 306.813 C 216.198 306.619,213.426 305.865,210.901 305.137 L 206.310 303.814 205.455 304.946 C 201.487 310.200,194.917 315.724,192.077 316.193 C 187.526 316.946,187.400 317.666,187.400 343.000 C 187.400 369.777,187.568 370.720,192.599 372.183 C 195.247 372.952,199.288 376.581,202.041 380.661 C 204.976 385.010,204.804 384.946,212.484 384.596 L 218.969 384.301 220.184 382.938 C 225.033 377.499,229.765 374.018,231.542 374.581 C 234.197 375.424,237.482 380.334,236.791 382.428 C 236.003 384.816,233.049 388.252,230.594 389.638 C 227.317 391.488,226.800 392.430,226.800 396.562 C 226.800 399.351,226.913 400.000,227.400 400.000 C 227.884 400.000,228.000 399.371,228.000 396.743 C 228.000 393.116,228.028 393.072,232.397 389.878 C 236.665 386.757,238.972 382.156,237.603 379.492 C 236.540 377.423,233.472 374.210,231.962 373.584 C 229.941 372.747,224.007 376.316,220.736 380.338 C 218.865 382.639,219.010 382.596,211.000 383.163 C 205.396 383.560,205.822 383.763,202.595 379.158 C 200.084 375.574,197.061 372.785,193.524 370.789 C 189.683 368.620,188.998 366.339,188.365 353.600 C 187.274 331.642,188.827 319.938,193.129 317.701 C 195.993 316.211,200.589 312.541,203.515 309.408 L 206.274 306.454 212.637 307.764 C 218.308 308.931,219.305 309.262,221.800 310.806 C 224.755 312.636,230.310 315.200,231.317 315.200 C 232.537 315.200,235.856 311.669,237.198 308.944 L 238.527 306.243 237.227 303.735 C 235.725 300.838,233.710 298.869,230.714 297.370 C 229.419 296.723,227.360 295.038,225.400 293.021 C 220.965 288.459,220.157 288.142,212.200 287.844 L 205.800 287.605 203.000 288.976 M301.400 288.979 C 291.986 291.435,290.708 292.820,287.798 303.715 L 287.073 306.431 288.436 307.838 C 289.186 308.612,290.654 309.793,291.697 310.462 L 293.594 311.680 296.297 310.855 C 299.236 309.958,305.354 307.121,305.758 306.469 C 305.909 306.223,307.033 306.598,308.607 307.418 C 310.037 308.163,313.047 309.357,315.297 310.070 C 324.950 313.130,326.752 320.798,320.371 331.665 L 318.806 334.330 316.470 333.785 C 315.185 333.486,312.630 332.691,310.791 332.020 C 306.661 330.513,306.312 330.512,304.469 331.993 C 302.615 333.483,300.276 334.274,296.320 334.748 C 291.330 335.347,286.048 339.248,283.522 344.201 C 282.961 345.301,281.686 347.040,280.689 348.067 C 275.727 353.177,274.060 362.904,276.173 374.407 C 277.467 381.449,277.793 382.218,280.410 384.419 C 286.496 389.535,287.605 391.461,287.602 396.900 C 287.600 399.390,287.718 400.000,288.200 400.000 C 288.686 400.000,288.800 399.358,288.800 396.620 C 288.800 389.893,287.160 386.300,283.200 384.356 C 279.795 382.683,279.254 381.877,277.944 376.520 C 274.786 363.611,276.800 351.877,282.696 348.838 C 283.722 348.309,284.570 346.824,285.003 344.800 C 285.405 342.917,287.928 339.981,290.781 338.076 L 293.120 336.514 299.739 336.314 C 303.380 336.203,307.313 336.264,308.479 336.449 C 309.646 336.634,312.425 336.904,314.655 337.049 L 318.711 337.312 320.135 335.356 C 324.717 329.065,326.483 319.983,324.075 315.092 C 322.456 311.804,321.122 310.734,316.484 309.010 C 312.147 307.398,310.852 306.740,308.538 304.974 C 306.276 303.247,306.135 303.255,304.027 305.220 C 302.036 307.077,300.563 307.884,296.522 309.334 L 293.643 310.367 291.222 308.584 C 288.352 306.472,288.396 306.856,290.373 301.144 C 293.301 292.682,293.181 292.802,301.202 290.419 C 306.021 288.987,305.774 288.999,313.131 289.855 C 319.855 290.638,320.866 291.198,323.381 295.524 C 324.942 298.210,327.208 300.010,330.127 300.885 C 335.260 302.423,337.671 310.906,337.037 325.200 C 336.838 329.698,336.931 331.943,337.452 335.200 C 338.409 341.177,338.303 346.445,337.119 351.859 L 336.143 356.319 336.829 362.459 C 338.407 376.582,338.579 381.115,337.654 384.207 C 336.730 387.296,334.323 392.553,333.638 392.976 C 332.747 393.527,333.081 400.000,334.000 400.000 C 334.725 400.000,334.800 399.733,334.800 397.156 C 334.800 394.704,334.996 393.915,336.220 391.438 C 338.183 387.466,339.578 381.933,339.368 378.949 C 339.277 377.657,338.892 372.460,338.512 367.400 C 337.658 356.011,337.656 356.212,338.678 349.394 C 339.465 344.143,339.484 343.448,338.972 338.394 C 338.671 335.427,338.414 329.850,338.400 326.000 C 338.335 307.685,336.742 302.705,329.780 299.057 C 327.372 297.795,326.526 297.076,325.013 295.000 C 321.325 289.940,320.126 289.271,313.496 288.570 C 306.564 287.836,305.661 287.867,301.400 288.979 M48.200 290.384 C 58.895 295.478,63.380 301.893,63.805 312.705 C 64.191 322.503,63.750 323.408,58.367 323.896 L 56.065 324.105 55.253 321.478 C 54.363 318.596,54.094 318.187,48.034 310.491 C 43.507 304.740,43.695 304.860,40.915 305.953 C 39.862 306.367,37.126 307.123,34.835 307.633 C 28.213 309.109,25.054 312.847,22.813 321.854 C 22.164 324.464,21.150 327.770,20.559 329.200 L 19.485 331.800 19.328 356.200 C 19.162 382.024,19.129 382.771,18.184 381.986 C 17.688 381.575,17.600 378.731,17.600 363.044 C 17.600 344.940,17.581 344.503,16.627 340.280 C 16.092 337.913,15.530 334.982,15.379 333.767 C 15.166 332.065,14.781 331.175,13.696 329.880 C 9.936 325.388,7.321 309.268,9.621 304.758 C 11.436 301.201,16.582 297.620,20.800 296.978 C 22.791 296.675,25.351 295.521,26.635 294.346 C 28.606 292.544,42.211 288.133,44.200 288.652 C 44.640 288.766,46.440 289.546,48.200 290.384 M117.870 299.228 C 115.486 304.558,115.600 302.318,115.602 343.973 L 115.603 382.200 117.061 387.800 C 117.863 390.880,118.641 394.930,118.790 396.800 L 119.062 400.200 119.131 396.904 C 119.198 393.683,119.242 393.546,121.057 390.904 C 122.078 389.417,123.698 386.593,124.657 384.629 L 126.400 381.058 126.400 343.707 L 126.400 306.356 124.844 304.078 C 123.988 302.825,122.293 300.720,121.077 299.400 L 118.867 297.000 117.870 299.228 M120.750 304.131 L 122.412 306.062 122.306 343.931 L 122.200 381.800 120.522 384.590 C 118.692 387.633,118.752 387.655,117.814 383.600 C 116.850 379.435,116.906 307.203,117.876 304.127 C 118.663 301.629,118.597 301.629,120.750 304.131 M69.388 355.800 C 69.401 386.033,69.403 386.008,67.313 383.097 L 66.071 381.368 65.960 355.784 C 65.843 328.593,65.886 327.886,67.727 326.596 C 69.302 325.493,69.376 326.799,69.388 355.800 M300.552 348.571 C 297.060 350.367,293.999 351.653,292.536 351.941 C 287.653 352.902,287.285 353.673,287.148 363.228 C 287.009 373.028,288.072 375.934,292.468 377.771 C 293.286 378.112,294.968 379.544,296.268 381.005 C 300.541 385.806,304.055 387.124,310.877 386.480 C 315.966 386.000,316.962 385.504,317.663 383.102 C 317.948 382.125,318.991 380.462,320.110 379.200 C 323.345 375.553,325.646 370.317,326.062 365.661 C 326.252 363.537,326.578 360.540,326.787 359.000 C 327.207 355.908,326.981 355.341,323.731 351.315 C 320.104 346.822,320.319 346.898,308.200 345.842 C 306.348 345.680,305.782 345.882,300.552 348.571 M314.597 347.851 L 318.994 348.130 321.218 350.365 C 322.440 351.594,323.986 353.410,324.653 354.400 L 325.865 356.200 325.230 362.814 C 324.436 371.070,322.051 376.454,317.743 379.718 C 317.102 380.203,315.749 381.438,314.737 382.462 C 309.990 387.266,303.250 386.326,297.706 380.088 C 296.345 378.557,294.345 376.734,293.260 376.039 C 290.140 374.037,288.400 370.900,288.400 367.281 C 288.402 356.558,289.170 354.915,295.353 352.399 C 297.579 351.493,300.930 349.952,302.800 348.973 C 305.827 347.388,306.420 347.213,308.200 347.383 C 309.300 347.487,312.179 347.698,314.597 347.851 M392.600 374.859 C 386.506 378.173,385.836 379.951,387.200 389.200 C 387.638 392.170,387.997 395.815,387.998 397.300 C 388.000 399.525,388.114 400.000,388.650 400.000 C 389.490 400.000,389.205 393.381,388.056 386.200 C 387.198 380.833,387.303 380.353,389.872 377.941 C 392.222 375.734,393.584 375.203,396.900 375.201 C 398.699 375.201,400.000 375.032,400.000 374.800 C 400.000 374.255,393.617 374.306,392.600 374.859 " stroke="none" fill="#9cb4b4" fill-rule="evenodd"></path><path id="path3" d="M353.403 16.453 C 352.085 16.879,349.431 17.390,347.504 17.589 C 342.861 18.069,343.200 17.469,343.200 25.200 C 343.200 33.721,343.903 34.876,344.797 27.824 C 345.536 21.995,346.789 20.765,352.831 19.939 C 357.034 19.365,357.224 19.230,356.706 17.189 C 356.484 16.315,356.190 15.618,356.051 15.640 C 355.913 15.662,354.721 16.028,353.403 16.453 M36.601 48.472 C 22.476 49.309,11.090 61.071,11.733 74.163 C 12.008 79.767,11.793 79.455,15.634 79.805 L 18.667 80.082 20.391 77.941 C 21.340 76.763,22.814 74.270,23.667 72.400 C 27.662 63.640,27.382 63.837,37.031 63.027 C 46.254 62.252,49.103 63.273,53.221 68.828 C 54.784 70.937,55.826 71.887,57.631 72.849 C 61.790 75.066,62.307 77.001,63.252 93.904 C 63.634 100.747,63.632 104.411,63.244 111.194 C 62.347 126.844,61.543 129.890,57.797 131.825 C 56.919 132.279,54.878 133.513,53.263 134.568 C 51.648 135.623,48.858 137.171,47.063 138.007 L 43.800 139.527 37.800 138.775 C 27.861 137.529,26.147 136.455,23.685 129.927 C 21.819 124.981,19.263 121.600,17.388 121.600 C 15.518 121.600,13.374 120.673,12.811 119.621 C 12.175 118.432,11.629 105.905,11.613 92.143 C 11.602 81.890,11.524 80.456,10.967 80.243 C 10.619 80.109,8.009 80.000,5.167 80.000 L 0.000 80.000 0.000 85.200 L 0.000 90.400 3.168 90.400 L 6.336 90.400 6.932 92.300 C 7.668 94.641,8.114 105.471,7.579 108.000 C 7.370 108.990,6.996 110.565,6.747 111.500 L 6.296 113.200 3.148 113.200 L 0.000 113.200 0.000 118.000 L 0.000 122.800 3.100 122.802 C 9.156 122.807,10.205 123.604,10.787 128.647 C 10.987 130.381,11.586 132.970,12.118 134.400 C 12.649 135.830,13.515 138.603,14.042 140.561 C 15.202 144.872,16.961 147.004,20.433 148.303 C 23.372 149.404,27.023 151.132,29.207 152.458 C 30.545 153.269,31.940 153.669,34.574 153.997 C 36.532 154.240,39.379 154.701,40.901 155.021 L 43.669 155.603 45.318 154.192 C 47.107 152.661,50.690 151.361,54.289 150.938 C 58.464 150.447,62.734 146.250,63.382 142.000 C 64.001 137.935,65.353 135.981,67.940 135.413 C 69.332 135.107,71.402 132.663,72.212 130.367 C 74.221 124.672,74.441 121.389,74.306 99.167 L 74.179 78.200 72.869 74.547 C 71.072 69.532,69.771 67.601,67.364 66.370 C 64.807 65.063,63.116 62.561,62.202 58.730 C 61.502 55.796,59.352 52.790,57.052 51.530 C 56.316 51.127,43.275 47.944,42.829 48.059 C 42.703 48.091,39.900 48.277,36.601 48.472 M230.400 48.238 C 230.070 48.316,227.233 48.550,224.096 48.758 C 216.356 49.270,211.897 51.772,209.234 57.100 C 208.742 58.083,207.737 59.209,206.850 59.768 C 204.832 61.042,202.790 63.469,201.473 66.157 C 200.182 68.795,199.810 82.336,200.852 88.800 C 201.455 92.543,201.454 95.478,200.848 102.400 C 199.323 119.798,199.368 118.009,200.366 121.668 C 202.783 130.523,203.776 132.076,209.146 135.392 C 211.245 136.688,214.236 139.026,215.946 140.707 C 219.241 143.945,221.627 144.998,228.881 146.415 L 231.561 146.939 233.743 145.490 C 235.015 144.646,236.298 143.379,236.817 142.454 C 239.489 137.700,246.060 137.608,250.850 142.258 C 252.194 143.562,252.276 143.774,251.959 145.133 C 251.770 145.940,251.431 148.984,251.203 151.898 C 250.583 159.857,248.769 163.834,244.479 166.642 C 243.225 167.462,241.381 168.887,240.380 169.808 C 235.528 174.272,221.023 174.705,217.400 170.494 C 214.025 166.570,210.234 163.996,206.873 163.346 C 205.455 163.072,200.800 167.097,200.800 168.599 C 200.800 170.891,204.707 175.934,207.631 177.416 C 208.953 178.086,209.871 178.952,210.718 180.328 C 214.216 186.013,224.434 188.539,236.722 186.755 C 244.928 185.564,247.983 183.905,249.151 180.004 C 249.805 177.824,252.288 175.378,254.477 174.758 C 260.652 173.008,263.537 163.167,261.794 149.800 C 260.906 142.993,260.816 144.302,262.911 133.600 C 265.684 119.436,265.713 116.273,263.137 109.200 C 262.697 107.990,261.924 104.750,261.421 102.000 C 260.917 99.250,260.309 96.302,260.070 95.449 C 259.708 94.156,259.757 93.656,260.363 92.449 C 262.901 87.390,265.901 71.461,265.178 66.886 C 263.405 55.671,260.784 53.499,246.476 51.385 C 243.183 50.898,234.250 49.022,231.528 48.246 C 231.238 48.163,230.730 48.159,230.400 48.238 M335.200 48.820 C 328.531 49.294,319.600 53.665,319.600 56.453 C 319.600 59.998,327.088 63.397,334.400 63.172 C 344.574 62.859,345.191 62.902,347.800 64.120 C 351.285 65.746,352.968 67.020,354.756 69.388 C 355.893 70.895,356.699 71.560,357.604 71.741 C 360.541 72.328,362.376 74.724,363.167 79.004 C 363.707 81.926,362.182 84.605,358.640 86.956 L 356.560 88.336 349.580 88.121 C 332.692 87.601,326.671 89.228,323.933 95.053 C 323.030 96.973,322.052 97.740,319.691 98.376 C 315.139 99.601,312.655 104.711,312.998 112.148 C 313.142 115.257,313.082 120.776,312.865 124.414 C 312.439 131.564,313.541 142.430,314.903 144.508 C 316.045 146.250,318.562 148.372,319.772 148.612 C 322.856 149.224,327.314 150.972,329.263 152.333 C 331.283 153.744,331.510 153.808,333.400 153.512 C 337.877 152.812,343.008 151.461,345.348 150.366 C 350.843 147.794,356.358 147.661,366.137 149.864 L 368.874 150.481 370.033 149.140 C 370.671 148.403,371.758 146.837,372.449 145.660 L 373.705 143.520 373.507 112.660 L 373.310 81.800 372.243 77.137 C 370.610 69.999,369.957 68.345,368.366 67.323 C 364.539 64.864,363.984 64.030,363.226 59.597 C 362.982 58.169,362.696 56.609,362.591 56.132 C 361.882 52.901,357.534 50.477,350.400 49.336 C 344.416 48.379,342.371 48.309,335.200 48.820 M149.000 51.365 C 143.966 52.805,142.063 53.148,137.183 53.492 C 128.314 54.118,127.003 54.982,124.874 61.600 C 122.948 67.589,121.806 79.346,122.595 85.080 C 123.247 89.820,124.971 99.949,125.781 103.800 C 126.622 107.796,127.202 119.591,127.201 132.662 L 127.200 143.923 129.100 145.355 L 131.000 146.788 132.100 145.509 L 133.200 144.230 133.227 131.615 C 133.275 109.599,133.951 101.830,137.162 86.359 C 138.934 77.827,139.690 76.355,143.728 73.576 C 147.107 71.250,148.261 70.143,149.800 67.757 C 151.224 65.548,152.804 64.231,154.882 63.520 C 157.417 62.652,161.600 58.170,161.600 56.322 C 161.600 54.537,157.315 49.579,155.812 49.624 C 155.365 49.637,152.300 50.421,149.000 51.365 M349.886 51.773 C 356.486 52.742,357.510 53.107,359.356 55.151 C 360.654 56.586,359.611 62.064,357.580 64.486 L 356.477 65.800 355.539 64.935 C 352.074 61.741,346.991 60.595,337.775 60.928 L 330.927 61.176 328.163 59.838 C 326.644 59.102,324.897 57.964,324.283 57.310 L 323.166 56.121 324.483 55.118 C 328.677 51.927,330.192 51.416,336.200 51.174 C 339.280 51.050,342.160 50.919,342.600 50.884 C 343.040 50.849,346.319 51.249,349.886 51.773 M51.000 52.543 C 57.625 54.000,58.800 54.883,58.800 58.405 C 58.800 63.952,56.699 69.724,55.781 66.700 C 54.293 61.803,48.604 59.996,36.908 60.706 C 26.395 61.344,23.965 60.806,23.467 57.733 C 23.190 56.027,23.553 55.646,28.000 52.978 L 31.000 51.177 38.400 51.289 C 44.798 51.385,46.504 51.555,51.000 52.543 M239.192 52.750 C 256.625 56.093,258.733 57.395,261.776 66.695 C 262.776 69.753,261.112 76.867,257.549 84.763 C 256.180 87.797,256.282 87.840,255.248 83.787 C 254.797 82.020,253.446 77.934,252.246 74.706 C 251.046 71.478,249.850 67.793,249.589 66.518 C 248.667 62.027,247.215 60.878,241.800 60.358 C 235.564 59.758,230.821 59.943,224.200 61.043 C 215.482 62.490,213.596 61.952,212.926 57.822 C 212.658 56.169,213.599 54.893,216.640 52.782 C 219.512 50.790,228.903 50.776,239.192 52.750 M157.773 54.141 C 159.522 56.276,159.522 56.280,157.814 58.275 C 156.458 59.859,156.357 59.900,153.115 60.183 C 147.461 60.676,146.349 61.591,145.793 66.200 C 145.444 69.105,145.080 69.556,141.762 71.189 C 138.624 72.734,137.472 74.292,136.572 78.210 C 136.219 79.745,135.211 83.880,134.331 87.400 C 133.451 90.920,132.455 95.465,132.117 97.500 C 131.365 102.034,131.155 102.074,129.991 97.900 C 129.485 96.085,128.581 93.340,127.982 91.800 C 124.355 82.471,124.850 72.234,129.362 63.276 C 131.062 59.900,130.586 60.223,135.240 59.273 C 137.326 58.847,140.016 57.992,141.217 57.374 C 142.901 56.507,154.639 52.603,156.073 52.432 C 156.223 52.415,156.988 53.184,157.773 54.141 M21.189 62.710 C 23.539 64.614,22.351 71.748,19.210 74.591 C 18.305 75.410,16.757 74.069,15.559 71.432 C 13.681 67.296,18.202 60.292,21.189 62.710 M239.996 63.597 C 242.358 64.179,243.744 64.763,244.551 65.517 C 246.789 67.607,251.162 78.466,252.639 85.600 C 253.163 88.130,253.835 91.010,254.132 92.000 C 254.765 94.106,253.481 105.504,252.239 108.800 C 251.866 109.790,251.013 112.670,250.344 115.200 C 248.321 122.848,247.024 124.368,240.782 126.403 C 238.702 127.081,235.694 128.280,234.098 129.067 L 231.196 130.497 228.498 129.090 C 227.014 128.317,224.270 127.200,222.400 126.610 C 215.120 124.311,213.774 123.024,212.432 117.085 C 211.975 115.058,211.072 111.600,210.427 109.400 C 208.836 103.973,207.919 94.769,208.651 91.563 C 208.932 90.333,209.454 87.543,209.812 85.363 C 210.169 83.183,211.178 79.060,212.052 76.200 C 215.333 65.466,215.079 65.721,224.800 63.411 C 229.830 62.215,234.620 62.274,239.996 63.597 M208.620 64.236 C 211.342 65.528,211.525 67.306,209.618 73.889 C 208.720 76.990,207.629 81.193,207.194 83.229 C 206.759 85.265,206.325 87.009,206.229 87.104 C 205.568 87.765,203.384 77.579,202.991 72.000 L 202.723 68.200 204.384 65.900 C 206.174 63.420,206.571 63.264,208.620 64.236 M70.852 76.978 L 72.102 80.200 71.956 90.200 C 71.772 102.753,71.773 106.648,71.960 114.400 C 72.104 120.361,72.062 120.762,70.883 124.800 C 68.964 131.375,68.931 131.442,68.014 130.612 C 65.910 128.708,64.933 121.810,65.557 113.261 C 66.108 105.699,66.117 97.493,65.582 90.200 C 64.770 79.148,65.104 75.844,67.267 73.528 C 68.760 71.930,68.973 72.134,70.852 76.978 M369.842 79.825 C 370.377 82.177,370.504 87.269,370.672 113.200 L 370.870 143.800 369.731 145.138 L 368.591 146.476 364.196 145.849 C 361.778 145.504,358.630 145.119,357.200 144.993 C 355.770 144.867,353.070 144.566,351.200 144.324 L 347.800 143.884 351.281 142.957 C 362.394 139.999,366.594 133.064,366.455 117.901 C 366.307 101.848,362.429 95.446,353.692 96.833 C 348.314 97.686,331.477 97.800,330.243 96.991 C 323.463 92.549,335.212 89.013,350.264 90.966 C 361.235 92.389,364.750 90.463,366.832 81.887 C 368.371 75.548,368.801 75.253,369.842 79.825 M352.963 100.840 C 359.486 101.557,361.226 104.173,363.180 116.200 C 364.537 124.551,357.670 135.414,348.595 139.272 C 344.883 140.850,343.975 140.928,337.668 140.205 C 325.801 138.845,324.132 136.430,323.544 119.765 C 323.480 117.940,324.702 113.375,326.694 108.000 C 328.639 102.754,329.619 101.850,334.040 101.225 C 342.660 100.006,344.946 99.959,352.963 100.840 M321.649 102.923 C 322.007 103.193,322.652 103.995,323.083 104.704 L 323.867 105.994 322.510 110.897 C 320.674 117.526,320.610 118.633,321.557 127.418 C 322.889 139.777,323.916 141.277,331.800 142.377 C 341.614 143.748,341.472 143.612,335.409 145.807 L 331.591 147.189 329.096 146.601 C 327.723 146.277,324.912 145.892,322.850 145.744 C 317.467 145.358,317.458 145.347,316.198 137.600 C 315.238 131.702,315.213 131.157,315.693 126.400 C 316.263 120.748,316.256 116.955,315.666 110.620 C 315.216 105.794,315.257 105.625,317.454 103.193 C 318.912 101.579,319.797 101.523,321.649 102.923 M208.594 112.916 C 209.752 116.435,210.400 119.114,210.400 120.383 C 210.400 126.157,211.459 127.519,216.289 127.964 C 219.477 128.257,225.469 130.394,225.845 131.372 C 227.011 134.410,220.362 139.012,217.800 136.939 C 217.140 136.405,215.250 135.086,213.600 134.007 C 211.950 132.929,210.060 131.678,209.400 131.228 C 208.740 130.778,207.710 130.092,207.110 129.705 C 205.952 128.956,204.578 126.238,202.979 121.537 C 201.735 117.882,202.830 111.667,205.409 107.730 C 206.330 106.324,206.534 106.656,208.594 112.916 M259.587 111.800 C 262.518 117.947,262.492 120.223,259.398 128.600 C 258.667 130.580,257.667 133.707,257.177 135.549 C 256.511 138.054,256.194 138.733,255.922 138.246 C 255.064 136.713,252.202 135.781,246.556 135.195 C 241.296 134.650,239.798 134.193,238.068 132.605 L 236.600 131.258 239.400 129.998 C 240.940 129.305,243.280 128.464,244.600 128.129 C 248.928 127.030,250.742 125.232,251.406 121.381 C 251.974 118.092,252.917 114.865,254.494 110.821 L 256.123 106.642 257.282 108.021 C 257.920 108.779,258.957 110.480,259.587 111.800 M20.486 129.093 C 21.047 130.142,21.630 131.900,21.781 133.000 C 22.464 137.982,24.375 139.620,30.400 140.383 C 32.270 140.620,36.063 141.182,38.828 141.631 L 43.857 142.447 46.535 141.439 C 48.008 140.885,50.795 139.614,52.728 138.615 C 56.868 136.477,56.763 136.492,58.076 137.900 C 61.070 141.110,61.211 143.421,58.572 146.027 L 56.446 148.127 50.060 147.876 C 45.345 147.690,42.906 147.771,40.737 148.185 C 34.665 149.343,31.165 149.403,29.179 148.382 C 28.201 147.879,25.436 146.784,23.036 145.950 C 17.647 144.076,18.323 144.947,16.436 137.442 L 14.839 131.092 15.608 129.584 C 17.421 126.030,18.774 125.894,20.486 129.093 M257.609 149.200 C 259.298 153.489,259.548 155.727,258.969 161.419 C 258.680 164.268,258.433 167.092,258.421 167.694 C 258.409 168.302,257.904 169.342,257.282 170.039 L 256.163 171.291 253.782 170.800 C 249.382 169.893,248.640 169.228,250.204 167.595 C 251.603 166.136,252.710 162.723,253.206 158.344 C 253.854 152.623,255.710 145.937,256.441 146.689 C 256.607 146.860,257.133 147.990,257.609 149.200 M209.062 167.020 C 210.458 167.800,211.600 168.619,211.600 168.839 C 211.600 170.498,208.514 173.200,206.620 173.200 C 206.284 173.200,205.347 172.205,204.540 170.989 L 203.072 168.778 204.236 167.495 C 206.308 165.213,205.902 165.253,209.062 167.020 M244.538 176.900 C 246.160 181.466,245.614 182.343,240.394 183.546 C 232.584 185.345,226.813 185.393,219.600 183.719 C 218.263 183.408,215.200 181.620,215.200 181.149 C 215.200 177.308,216.846 176.767,229.751 176.362 C 235.938 176.168,241.540 175.843,242.200 175.639 C 242.860 175.435,243.520 175.253,243.667 175.234 C 243.814 175.215,244.206 175.965,244.538 176.900 M118.157 256.169 C 118.037 256.482,118.151 257.134,118.410 257.619 L 118.882 258.500 119.941 257.438 C 120.837 256.539,120.908 256.317,120.400 255.994 C 119.517 255.432,118.406 255.519,118.157 256.169 M38.945 289.582 C 33.918 290.867,27.887 293.201,26.635 294.346 C 25.351 295.521,22.791 296.675,20.800 296.978 C 16.582 297.620,11.436 301.201,9.621 304.758 C 7.321 309.268,9.936 325.388,13.696 329.880 C 14.781 331.175,15.166 332.065,15.379 333.767 C 15.530 334.982,16.092 337.913,16.627 340.280 C 17.581 344.503,17.600 344.940,17.600 363.044 C 17.600 378.731,17.688 381.575,18.184 381.986 C 19.129 382.771,19.162 382.024,19.328 356.200 L 19.485 331.800 20.559 329.200 C 21.150 327.770,22.164 324.464,22.813 321.854 C 25.054 312.847,28.213 309.109,34.835 307.633 C 37.126 307.123,39.862 306.367,40.915 305.953 C 43.695 304.860,43.507 304.740,48.034 310.491 C 54.094 318.187,54.363 318.596,55.253 321.478 L 56.065 324.105 58.367 323.896 C 63.750 323.408,64.191 322.503,63.805 312.705 C 63.380 301.893,58.895 295.478,48.200 290.384 C 43.805 288.291,43.946 288.303,38.945 289.582 M203.768 289.904 C 200.737 291.622,198.914 293.121,197.943 294.693 C 197.363 295.631,196.392 296.401,195.033 297.003 C 190.428 299.039,186.751 303.763,186.006 308.600 C 185.494 311.917,184.637 313.252,182.658 313.807 C 181.165 314.226,179.450 315.962,178.279 318.241 C 174.613 325.372,174.308 363.158,177.860 370.136 C 178.915 372.209,181.231 375.200,181.780 375.200 C 183.062 375.200,184.401 376.916,185.192 379.574 C 186.235 383.076,189.119 387.430,192.753 390.989 L 195.600 393.779 195.600 396.889 L 195.600 400.000 197.600 400.000 L 199.600 400.000 199.600 395.000 C 199.600 387.733,198.772 388.148,212.800 388.381 C 222.586 388.543,223.200 389.002,223.200 396.160 L 223.200 400.000 225.000 400.000 L 226.800 400.000 226.800 396.562 C 226.800 392.430,227.317 391.488,230.594 389.638 C 235.246 387.013,237.982 382.022,236.262 379.299 C 232.032 372.598,228.738 373.344,220.184 382.938 L 218.969 384.301 212.484 384.596 C 204.804 384.946,204.976 385.010,202.041 380.661 C 199.288 376.581,195.247 372.952,192.599 372.183 C 187.568 370.720,187.400 369.777,187.400 343.000 C 187.400 317.666,187.526 316.946,192.077 316.193 C 194.917 315.724,201.487 310.200,205.455 304.946 L 206.310 303.814 210.901 305.137 C 213.426 305.865,216.198 306.619,217.061 306.813 C 217.923 307.007,219.883 307.995,221.415 309.008 C 225.435 311.668,230.613 314.113,231.577 313.807 C 232.665 313.462,235.512 310.174,236.538 308.077 L 237.382 306.354 236.233 304.160 C 235.136 302.065,231.982 298.804,231.044 298.796 C 229.355 298.781,226.330 296.706,225.025 294.666 C 223.160 291.751,219.423 289.200,217.017 289.200 C 216.087 289.200,213.182 289.099,210.563 288.976 C 205.862 288.754,205.773 288.766,203.768 289.904 M300.800 290.543 C 293.026 292.960,293.302 292.680,290.373 301.144 C 288.396 306.856,288.352 306.472,291.222 308.584 L 293.643 310.367 296.522 309.334 C 300.563 307.884,302.036 307.077,304.027 305.220 C 306.135 303.255,306.276 303.247,308.538 304.974 C 310.852 306.740,312.147 307.398,316.484 309.010 C 321.122 310.734,322.456 311.804,324.075 315.092 C 326.483 319.983,324.717 329.065,320.135 335.356 L 318.711 337.312 314.655 337.049 C 312.425 336.904,309.646 336.634,308.479 336.449 C 307.313 336.264,303.380 336.203,299.739 336.314 L 293.120 336.514 290.781 338.076 C 287.928 339.981,285.405 342.917,285.003 344.800 C 284.570 346.824,283.722 348.309,282.696 348.838 C 276.800 351.877,274.786 363.611,277.944 376.520 C 279.254 381.877,279.795 382.683,283.200 384.356 C 287.160 386.300,288.800 389.893,288.800 396.620 L 288.800 400.000 290.400 400.000 L 292.000 400.000 292.000 396.273 C 292.000 392.615,292.496 388.853,293.233 386.914 L 293.605 385.933 294.791 386.931 C 296.163 388.085,298.560 388.676,303.261 389.018 C 311.789 389.638,314.800 391.655,314.800 396.747 L 314.800 400.000 324.000 400.000 L 333.200 400.000 333.200 396.624 C 333.200 394.608,333.377 393.138,333.638 392.976 C 334.323 392.553,336.730 387.296,337.654 384.207 C 338.579 381.115,338.407 376.582,336.829 362.459 L 336.143 356.319 337.119 351.859 C 338.303 346.445,338.409 341.177,337.452 335.200 C 336.931 331.943,336.838 329.698,337.037 325.200 C 337.671 310.906,335.260 302.423,330.127 300.885 C 327.208 300.010,324.942 298.210,323.381 295.524 C 320.866 291.198,319.855 290.638,313.131 289.855 C 305.774 288.999,305.763 288.999,300.800 290.543 M46.360 292.380 L 48.698 293.560 48.883 295.794 C 49.123 298.689,49.367 298.882,53.079 299.107 C 56.703 299.327,56.920 299.470,59.482 303.323 L 61.311 306.074 60.808 308.337 C 59.839 312.692,57.005 316.836,55.856 315.577 C 51.236 310.521,48.501 306.130,48.334 303.501 C 48.125 300.209,47.946 300.015,44.747 299.616 C 40.594 299.098,37.335 297.395,36.164 295.131 C 35.387 293.627,35.357 293.654,39.320 292.336 C 43.458 290.960,43.548 290.960,46.360 292.380 M219.734 292.895 C 220.982 293.784,220.988 295.302,219.755 297.686 L 219.179 298.800 214.490 298.766 C 205.648 298.703,203.582 298.017,202.968 294.943 C 202.743 293.816,202.877 293.574,204.259 292.613 L 205.800 291.541 212.199 291.814 C 217.709 292.049,218.756 292.199,219.734 292.895 M312.849 292.840 L 318.298 293.688 318.568 296.744 C 319.176 303.631,319.590 304.032,326.399 304.312 C 332.518 304.564,332.446 304.496,333.635 311.200 C 334.579 316.522,334.717 322.272,334.041 328.141 C 333.842 329.868,333.824 331.787,334.001 332.405 C 336.259 340.275,336.204 344.737,333.749 352.847 L 332.706 356.295 333.539 361.247 C 333.998 363.971,334.756 369.629,335.225 373.820 L 336.077 381.441 335.008 384.020 C 333.683 387.216,331.571 390.801,331.015 390.796 C 328.749 390.776,324.497 386.683,323.412 383.479 L 322.708 381.400 324.152 378.982 C 326.601 374.880,327.911 370.602,329.035 363.030 L 330.064 356.099 329.011 354.021 C 326.916 349.887,323.596 346.183,320.192 344.182 C 319.546 343.802,319.655 343.528,321.384 341.182 C 322.431 339.762,324.263 336.943,325.456 334.919 L 327.624 331.238 327.704 323.319 C 327.831 310.763,326.663 308.129,320.376 306.795 L 318.000 306.291 318.000 302.369 C 318.000 297.609,318.549 297.973,310.866 297.636 C 303.949 297.332,302.484 296.897,301.413 294.825 L 300.812 293.663 303.106 292.863 C 306.060 291.833,306.375 291.832,312.849 292.840 M198.046 301.830 C 199.108 302.373,200.400 304.556,200.400 305.807 C 200.400 306.421,197.386 309.480,194.699 311.594 C 193.421 312.599,191.558 311.540,190.113 308.988 C 188.776 306.629,188.941 305.926,191.465 303.199 C 193.920 300.548,195.071 300.308,198.046 301.830 M21.800 301.742 C 24.523 302.468,26.113 303.344,27.327 304.787 L 28.350 306.002 26.244 307.994 C 23.626 310.470,22.436 312.829,20.591 319.200 C 18.837 325.254,18.789 325.312,17.300 323.136 C 15.199 320.065,14.808 318.924,13.999 313.513 C 12.888 306.080,12.890 306.063,14.900 304.142 C 18.164 301.024,18.571 300.882,21.800 301.742 M233.373 303.874 C 235.389 306.442,235.383 306.483,232.614 309.763 L 231.294 311.326 227.947 309.444 C 222.597 306.436,222.569 306.407,223.388 304.681 C 224.237 302.893,226.701 301.843,230.494 301.654 C 231.378 301.610,231.932 302.038,233.373 303.874 M117.876 304.127 C 116.906 307.203,116.850 379.435,117.814 383.600 C 118.752 387.655,118.692 387.633,120.522 384.590 L 122.200 381.800 122.306 343.931 L 122.412 306.062 120.750 304.131 C 118.597 301.629,118.663 301.629,117.876 304.127 M295.450 304.652 C 296.186 306.031,296.186 306.067,295.424 306.628 C 293.443 308.087,292.067 306.850,293.020 304.468 C 293.774 302.582,294.368 302.627,295.450 304.652 M182.573 320.901 C 184.480 325.214,184.600 326.653,184.595 345.200 C 184.590 364.395,184.291 367.490,182.245 369.537 L 181.283 370.499 180.671 369.549 C 180.334 369.027,179.550 366.350,178.929 363.600 L 177.800 358.600 177.860 344.400 L 177.920 330.200 179.129 325.600 C 181.153 317.903,181.212 317.823,182.573 320.901 M67.727 326.596 C 65.886 327.886,65.843 328.593,65.960 355.784 L 66.071 381.368 67.313 383.097 C 69.403 386.008,69.401 386.033,69.388 355.800 C 69.376 326.799,69.302 325.493,67.727 326.596 M297.988 340.283 C 299.900 340.930,302.649 342.686,302.959 343.458 C 303.064 343.721,301.147 344.947,298.463 346.335 L 293.783 348.754 292.152 348.023 C 290.617 347.336,289.242 345.867,288.684 344.316 C 288.506 343.824,289.129 343.007,290.916 341.390 C 293.649 338.917,293.857 338.884,297.988 340.283 M314.552 346.403 C 319.392 346.833,320.661 347.512,323.731 351.315 C 326.981 355.341,327.207 355.908,326.787 359.000 C 326.578 360.540,326.252 363.537,326.062 365.661 C 325.646 370.317,323.345 375.553,320.110 379.200 C 318.991 380.462,317.948 382.125,317.663 383.102 C 316.962 385.504,315.966 386.000,310.877 386.480 C 304.055 387.124,300.541 385.806,296.268 381.005 C 294.968 379.544,293.286 378.112,292.468 377.771 C 288.072 375.934,287.009 373.028,287.148 363.228 C 287.285 353.673,287.653 352.902,292.536 351.941 C 293.999 351.653,297.060 350.367,300.552 348.571 C 305.782 345.882,306.348 345.680,308.200 345.842 C 309.300 345.937,312.159 346.190,314.552 346.403 M282.990 357.717 C 284.084 365.594,283.849 371.864,282.335 375.185 L 281.507 377.000 281.000 375.818 C 278.986 371.125,278.810 359.124,280.701 355.420 L 281.303 354.240 282.030 355.137 C 282.429 355.631,282.861 356.792,282.990 357.717 M392.400 376.042 C 387.744 378.834,387.113 380.308,388.056 386.200 C 388.479 388.840,388.931 393.025,389.062 395.500 L 389.301 400.000 390.850 400.000 L 392.400 400.000 392.400 396.832 C 392.400 395.089,392.054 392.164,391.632 390.332 C 391.209 388.499,390.636 385.672,390.358 384.048 L 389.853 381.096 391.703 379.348 L 393.553 377.600 396.777 377.600 L 400.000 377.600 400.000 376.400 L 400.000 375.200 396.900 375.201 C 394.465 375.203,393.500 375.383,392.400 376.042 M196.781 378.612 L 199.289 381.224 199.021 383.512 C 198.563 387.419,198.626 387.340,195.551 387.795 C 192.834 388.197,188.302 382.520,189.191 379.827 C 190.567 375.659,193.495 375.190,196.781 378.612 M233.149 378.991 C 235.190 381.205,235.190 381.434,233.154 384.011 C 230.746 387.057,227.037 386.384,225.750 382.668 L 225.232 381.172 227.916 379.192 C 231.188 376.778,231.112 376.781,233.149 378.991 " stroke="none" fill="#acbcbc" fill-rule="evenodd"></path><path id="path4" d="M0.000 37.600 L 0.000 75.200 3.164 75.200 C 6.804 75.200,7.958 74.360,8.822 71.082 C 13.065 54.988,21.584 47.574,37.318 46.284 L 43.635 45.766 50.218 47.445 C 59.613 49.842,62.066 51.575,64.245 57.356 C 65.183 59.845,65.753 60.625,68.810 63.600 C 73.547 68.210,74.310 69.705,75.820 77.333 C 76.615 81.344,77.012 105.079,76.457 115.400 C 75.651 130.405,74.683 133.419,69.168 138.090 C 66.933 139.983,66.484 140.658,64.667 144.848 C 62.905 148.912,59.650 151.598,54.714 153.062 C 51.730 153.947,49.180 155.313,47.019 157.184 C 44.062 159.743,44.311 159.707,37.529 158.567 C 32.660 157.750,31.194 157.353,30.400 156.639 C 28.825 155.222,25.755 153.427,21.132 151.221 C 15.705 148.630,13.256 146.179,11.995 142.078 C 10.793 138.168,8.538 132.246,7.388 129.976 L 6.387 128.000 3.193 128.000 L 0.000 128.000 0.000 215.600 L 0.000 303.200 3.120 303.200 L 6.239 303.200 6.711 301.900 C 7.940 298.508,11.203 296.174,16.599 294.825 C 18.223 294.419,20.597 293.455,21.876 292.681 C 24.931 290.833,31.286 288.768,38.094 287.412 L 43.587 286.318 46.480 287.197 C 56.575 290.263,63.790 297.972,65.987 308.040 C 66.861 312.041,67.011 312.385,69.491 316.060 C 72.502 320.521,72.777 323.837,72.790 355.874 L 72.800 381.947 71.773 387.019 C 71.208 389.808,70.578 392.532,70.373 393.071 C 70.168 393.611,70.000 395.390,70.000 397.026 L 70.000 400.000 93.440 400.000 L 116.880 400.000 116.687 396.500 C 116.581 394.575,115.985 390.840,115.362 388.200 L 114.228 383.400 114.103 344.809 L 113.977 306.217 114.997 302.660 C 116.474 297.514,118.085 293.833,118.933 293.670 C 119.942 293.476,124.949 298.678,127.515 302.587 L 129.600 305.763 129.600 343.755 L 129.600 381.746 127.723 385.973 C 126.691 388.298,125.341 391.030,124.723 392.044 C 123.751 393.640,123.600 394.300,123.600 396.944 L 123.600 400.000 157.800 400.000 L 192.000 400.000 192.000 396.885 L 192.000 393.770 189.973 391.785 C 187.635 389.496,184.963 385.598,183.494 382.333 C 182.874 380.954,181.525 379.107,180.051 377.620 C 174.465 371.981,173.830 368.660,173.813 345.000 C 173.795 320.565,174.459 317.109,180.264 311.416 C 182.219 309.500,183.101 308.198,184.526 305.124 C 186.530 300.802,188.845 298.008,192.139 295.938 C 193.273 295.226,195.301 293.510,196.648 292.125 C 200.752 287.902,203.120 287.030,210.903 286.872 C 220.018 286.688,222.864 287.784,227.240 293.163 C 228.361 294.541,229.871 295.796,231.400 296.619 C 239.235 300.840,240.878 307.092,235.752 313.184 C 232.344 317.234,229.026 316.846,220.371 311.382 C 219.308 310.711,217.154 310.146,212.745 309.382 C 209.365 308.796,206.563 308.283,206.518 308.243 C 206.472 308.202,204.762 309.797,202.718 311.788 C 200.673 313.779,197.704 316.259,196.119 317.300 C 189.771 321.469,188.251 329.068,189.203 351.891 C 189.705 363.937,190.907 367.887,194.735 370.077 C 197.899 371.887,202.135 376.062,204.142 379.349 C 206.143 382.625,205.312 382.424,213.398 381.583 L 218.196 381.083 220.160 378.940 C 222.444 376.445,225.164 374.585,228.762 373.057 L 231.324 371.969 233.460 373.387 C 241.262 378.567,240.371 385.873,231.164 392.215 L 229.400 393.431 229.284 396.715 L 229.168 400.000 257.784 400.000 L 286.400 400.000 286.400 396.682 C 286.400 392.465,285.143 390.135,281.080 386.819 C 276.072 382.733,274.368 377.407,274.420 366.000 C 274.468 355.479,275.649 351.415,280.060 346.591 C 281.263 345.276,282.714 343.387,283.285 342.394 C 285.625 338.325,290.825 334.681,295.800 333.625 C 298.228 333.109,299.947 332.366,304.075 330.045 L 306.351 328.767 312.075 329.935 C 315.224 330.578,318.060 331.170,318.379 331.252 C 319.219 331.467,321.845 326.085,322.829 322.129 L 323.642 318.857 322.657 316.929 C 321.043 313.771,319.512 312.642,315.200 311.433 C 313.110 310.846,310.263 309.838,308.873 309.192 L 306.346 308.017 303.642 309.379 C 298.665 311.885,294.202 312.929,292.242 312.047 C 288.850 310.519,285.404 306.966,285.815 305.420 C 289.565 291.302,290.810 289.962,302.358 287.609 C 307.223 286.617,317.377 287.258,320.281 288.739 C 322.042 289.638,324.648 292.172,326.101 294.400 C 326.603 295.170,328.181 296.551,329.607 297.469 C 337.776 302.728,339.203 306.766,339.201 324.610 C 339.200 327.916,339.401 332.146,339.647 334.010 C 340.287 338.866,340.214 347.525,339.494 352.316 C 339.024 355.439,338.957 357.418,339.216 360.516 C 340.767 379.079,340.519 384.566,337.824 391.304 C 337.037 393.271,336.800 394.572,336.800 396.931 L 336.800 400.000 361.800 400.000 L 386.800 400.000 386.800 397.499 C 386.800 396.124,386.441 391.862,386.003 388.029 L 385.207 381.059 386.188 379.384 C 388.501 375.438,391.804 373.600,396.584 373.600 L 400.000 373.600 400.000 186.800 L 400.000 0.000 378.772 -0.000 L 357.543 -0.000 357.706 3.500 C 357.795 5.425,358.443 9.598,359.146 12.773 L 360.424 18.546 359.512 19.819 C 358.239 21.597,356.469 22.990,354.662 23.637 C 351.839 24.649,350.205 26.490,347.849 31.317 C 346.644 33.786,345.183 36.252,344.602 36.798 L 343.547 37.790 342.759 36.795 C 340.080 33.413,339.600 31.632,339.600 25.080 L 339.600 18.937 340.837 17.069 C 342.082 15.191,343.904 13.600,344.813 13.600 C 346.214 13.600,350.603 10.891,352.418 8.904 L 354.400 6.736 354.400 3.368 L 354.400 0.000 177.200 0.000 L 0.000 0.000 0.000 37.600 M236.137 47.005 C 239.343 47.849,244.501 48.790,249.039 49.360 C 258.405 50.537,264.451 52.864,266.579 56.111 C 267.993 58.270,268.131 79.567,266.801 90.492 C 266.442 93.437,266.513 95.568,267.557 113.400 C 267.941 119.957,267.479 131.940,266.600 138.200 C 265.633 145.095,265.264 148.319,264.998 152.200 C 263.846 169.019,262.356 173.310,256.509 176.645 C 253.927 178.117,252.945 179.038,251.401 181.438 C 248.135 186.513,245.723 187.763,237.533 188.625 C 222.974 190.157,214.855 188.453,208.949 182.625 C 207.151 180.851,204.794 178.648,203.710 177.729 C 201.721 176.044,199.467 172.236,198.962 169.710 C 198.510 167.448,201.508 163.287,204.806 161.599 C 207.084 160.434,214.100 163.034,217.293 166.226 C 219.157 168.090,221.965 169.365,226.910 170.595 L 231.220 171.666 233.876 170.423 C 235.337 169.740,237.296 168.476,238.230 167.615 C 239.164 166.754,240.810 165.603,241.889 165.056 C 247.624 162.150,249.408 157.632,248.386 148.600 C 247.844 143.806,247.803 143.711,245.711 142.384 C 243.486 140.973,242.871 141.199,238.919 144.875 C 237.404 146.284,235.302 147.748,233.841 148.411 L 231.347 149.541 226.893 148.781 C 218.819 147.404,219.036 147.501,214.737 143.355 C 212.612 141.306,209.368 138.658,207.528 137.471 C 200.929 133.214,198.750 128.478,197.384 115.424 C 197.084 112.551,196.562 108.670,196.224 106.800 C 194.697 98.336,194.395 93.887,195.177 91.350 C 195.575 90.057,196.114 87.380,196.374 85.400 C 196.635 83.420,197.011 80.810,197.210 79.600 C 197.409 78.390,197.766 75.420,198.002 73.000 C 198.747 65.387,201.285 60.285,205.595 57.739 C 206.187 57.390,207.226 56.181,207.905 55.052 C 210.465 50.797,214.990 47.830,219.978 47.136 C 221.420 46.935,224.400 46.530,226.600 46.236 C 228.800 45.942,230.644 45.678,230.698 45.651 C 230.752 45.623,233.200 46.232,236.137 47.005 M350.600 47.407 C 360.749 49.180,362.891 50.813,365.816 59.000 C 366.299 60.352,367.392 61.907,369.189 63.800 C 375.229 70.164,375.599 73.106,375.600 114.811 L 375.600 144.223 374.234 147.011 C 372.882 149.771,371.969 150.993,369.970 152.719 L 368.939 153.608 364.392 152.415 C 355.076 149.971,351.134 150.702,345.537 155.908 L 343.673 157.641 337.419 158.087 L 331.166 158.533 329.483 156.891 C 327.375 154.835,323.909 152.741,320.379 151.392 C 312.660 148.443,310.345 142.295,310.435 124.988 C 310.546 103.769,311.479 100.405,318.419 96.188 C 319.818 95.339,321.299 94.019,322.003 92.996 C 325.411 88.042,328.580 86.739,338.200 86.334 C 342.380 86.159,348.230 85.902,351.200 85.763 L 356.600 85.512 358.738 83.379 L 360.875 81.247 359.800 79.271 C 359.209 78.185,357.472 76.174,355.941 74.803 C 354.409 73.432,352.632 71.382,351.992 70.248 C 351.155 68.765,350.236 67.829,348.714 66.910 C 344.594 64.423,344.429 64.394,337.169 64.888 C 324.257 65.765,319.728 64.272,316.649 58.122 L 315.609 56.044 318.184 53.769 C 323.457 49.110,327.757 47.515,337.021 46.779 C 340.309 46.517,343.077 46.233,343.171 46.147 C 343.265 46.062,343.625 46.074,343.971 46.175 C 344.317 46.275,347.300 46.830,350.600 47.407 M158.240 48.346 C 161.530 50.762,163.866 54.657,163.427 56.995 C 162.851 60.069,160.271 62.896,154.909 66.334 C 153.979 66.930,152.643 68.224,151.941 69.209 C 149.874 72.106,148.339 73.573,146.000 74.886 C 141.088 77.644,140.443 78.867,138.864 88.400 C 136.662 101.705,136.400 105.663,136.400 125.624 L 136.400 143.847 134.978 146.224 C 134.197 147.531,133.022 149.140,132.367 149.800 L 131.178 151.000 128.548 149.600 C 127.101 148.830,124.881 147.262,123.613 146.115 L 121.308 144.031 121.084 124.115 C 120.961 113.162,120.568 98.890,120.211 92.400 C 119.562 80.581,119.806 65.450,120.755 58.628 C 121.157 55.744,121.833 55.089,127.000 52.584 L 130.600 50.839 137.344 50.564 C 143.439 50.316,144.614 50.144,149.544 48.780 C 156.222 46.932,156.309 46.928,158.240 48.346 M225.400 65.382 C 216.938 67.582,217.524 67.067,215.004 74.513 C 211.099 86.048,210.365 99.022,212.988 110.111 C 213.520 112.360,214.079 115.100,214.230 116.200 C 214.725 119.802,216.974 122.872,219.531 123.436 C 222.715 124.139,226.718 125.323,228.884 126.203 L 231.338 127.200 233.802 126.214 C 235.157 125.672,237.961 124.744,240.033 124.152 C 245.491 122.592,247.086 121.036,247.978 116.400 C 248.253 114.970,248.924 112.090,249.468 110.000 C 253.462 94.664,249.112 70.514,241.726 67.017 C 235.438 64.040,231.917 63.687,225.400 65.382 M35.400 64.943 C 29.154 65.622,28.343 66.231,26.415 71.695 C 25.092 75.443,22.993 79.339,21.637 80.567 C 21.176 80.983,20.800 81.534,20.800 81.791 C 20.800 82.047,19.742 83.907,18.449 85.924 C 12.363 95.416,13.693 112.510,21.132 120.400 C 22.657 122.018,25.421 127.503,25.818 129.701 C 26.610 134.081,29.512 135.789,37.427 136.534 L 43.792 137.133 45.871 136.149 C 50.719 133.856,55.876 129.723,58.287 126.200 C 61.352 121.722,62.326 105.910,60.764 86.000 C 60.306 80.159,59.296 77.492,56.869 75.721 C 54.322 73.862,52.368 71.870,50.975 69.713 C 47.883 64.926,44.656 63.938,35.400 64.943 M339.917 102.832 C 337.782 103.212,334.837 103.922,333.373 104.409 L 330.711 105.295 329.417 108.147 C 328.705 109.716,327.555 112.711,326.860 114.803 L 325.599 118.606 325.932 125.047 C 326.303 132.220,326.574 133.019,329.546 135.703 L 331.074 137.084 337.573 137.610 L 344.071 138.136 346.736 136.828 C 353.092 133.707,357.817 128.107,360.379 120.660 L 361.114 118.526 359.948 113.963 C 357.677 105.079,357.019 104.439,348.672 102.995 C 346.653 102.645,344.730 102.310,344.400 102.250 C 344.070 102.190,342.053 102.451,339.917 102.832 M127.292 254.841 C 129.884 255.883,130.324 256.190,130.016 256.742 C 128.714 259.072,120.041 267.569,118.942 267.591 C 118.372 267.602,115.873 261.411,115.172 258.251 L 114.651 255.901 116.659 253.986 L 118.667 252.070 121.433 252.834 C 122.955 253.254,125.591 254.157,127.292 254.841 M40.655 309.612 C 40.026 309.800,37.686 310.263,35.455 310.640 C 28.862 311.754,26.602 314.524,24.774 323.728 C 24.150 326.872,23.428 329.974,23.171 330.622 C 22.840 331.453,22.616 339.529,22.411 358.000 L 22.120 384.200 20.860 388.943 C 19.954 392.354,19.600 394.572,19.600 396.843 L 19.600 400.000 42.000 400.000 L 64.400 400.000 64.400 397.017 L 64.400 394.034 61.700 390.666 C 60.215 388.813,58.325 386.155,57.500 384.758 L 56.000 382.218 55.987 363.009 C 55.972 339.036,55.619 332.110,54.237 328.655 C 53.688 327.284,52.786 324.415,52.231 322.279 C 51.257 318.533,51.093 318.233,47.581 313.798 C 43.699 308.894,43.484 308.764,40.655 309.612 M302.200 350.600 C 300.220 351.581,297.430 352.838,296.000 353.392 C 291.092 355.294,290.979 355.418,290.461 359.462 C 289.061 370.372,289.341 371.393,294.855 375.530 C 296.226 376.558,298.172 378.463,299.179 379.763 C 303.715 385.617,308.728 385.989,314.171 380.876 C 315.287 379.828,316.860 378.567,317.666 378.074 C 320.305 376.460,324.000 369.687,324.000 366.465 C 324.000 365.376,324.189 362.643,324.420 360.393 C 324.905 355.664,324.746 355.274,320.714 351.333 L 318.600 349.266 312.200 349.041 L 305.800 348.816 302.200 350.600 M0.000 393.000 L 0.000 400.000 7.800 400.000 L 15.600 400.000 15.591 396.900 L 15.583 393.800 13.973 392.661 C 13.087 392.034,11.023 390.279,9.385 388.761 L 6.408 386.000 3.204 386.000 L 0.000 386.000 0.000 393.000 " stroke="none" fill="#8aa6a2" fill-rule="evenodd"></path></g></svg>